<?xml version="1.0" standalone="no"?>
<!DOCTYPE svg PUBLIC "-//W3C//DTD SVG 20010904//EN"
 "http://www.w3.org/TR/2001/REC-SVG-20010904/DTD/svg10.dtd">
<svg version="1.0" xmlns="http://www.w3.org/2000/svg"
 width="562.000000pt" height="148.000000pt" viewBox="0 0 562.000000 148.000000"
 preserveAspectRatio="xMidYMid meet">

<g transform="translate(0.000000,148.000000) scale(0.100000,-0.100000)"
fill="#000000" stroke="none">
<path d="M336 1339 c-6 -19 -26 -118 -26 -129 0 -13 77 -13 85 0 4 6 -8 10
-29 10 -40 0 -42 6 -25 79 9 40 5 72 -5 40z"/>
<path d="M701 1279 c-7 -38 -10 -73 -7 -76 3 -4 6 5 6 18 0 31 26 69 47 69 13
0 15 -9 10 -47 l-5 -48 13 43 c8 24 11 49 8 57 -6 17 -29 20 -38 5 -12 -20
-21 -9 -17 20 9 61 -5 28 -17 -41z"/>
<path d="M3276 1329 c-20 -84 -26 -122 -22 -127 3 -2 7 6 10 19 20 84 26 122
22 127 -3 2 -7 -6 -10 -19z"/>
<path d="M3311 1279 c-7 -38 -11 -72 -9 -75 3 -2 10 28 17 67 7 38 11 72 9 75
-3 2 -10 -28 -17 -67z"/>
<path d="M4772 1286 c-7 -37 -11 -70 -9 -73 3 -2 17 -5 33 -6 22 -2 31 4 42
27 18 37 2 81 -28 73 -15 -4 -20 1 -22 22 -2 16 -8 1 -16 -43z m61 -10 c2 -6
0 -21 -4 -34 -11 -30 -55 -28 -51 3 1 11 3 27 4 36 2 18 44 14 51 -5z"/>
<path d="M4945 1310 c-4 -23 -5 -44 -2 -46 3 -3 8 13 12 36 4 23 5 44 2 46 -3
3 -8 -13 -12 -36z"/>
<path d="M5048 1275 l-15 -75 43 0 c24 0 44 5 44 10 0 6 -16 10 -36 10 -32 0
-36 2 -31 23 11 42 20 107 15 107 -3 0 -12 -34 -20 -75z"/>
<path d="M1154 1329 c-4 -7 -8 -33 -10 -58 -2 -40 -1 -42 6 -17 5 16 15 33 22
38 10 7 10 11 1 14 -7 3 -9 12 -6 20 6 17 -3 19 -13 3z"/>
<path d="M1211 1328 c0 -10 -4 -18 -8 -18 -5 0 -9 -25 -10 -55 -1 -42 2 -55
13 -55 8 0 14 5 14 10 0 6 -5 10 -11 10 -16 0 0 62 20 77 9 7 11 12 4 13 -6 0
-14 8 -16 18 -4 16 -5 16 -6 0z"/>
<path d="M2354 1329 c-4 -7 -8 -33 -10 -58 -2 -40 -1 -42 6 -17 5 16 15 33 22
38 10 7 10 11 1 14 -7 3 -9 12 -6 20 6 17 -3 19 -13 3z"/>
<path d="M3591 1328 c0 -10 -4 -18 -8 -18 -5 0 -9 -25 -10 -55 -1 -42 2 -55
13 -55 8 0 14 5 14 10 0 6 -5 10 -11 10 -16 0 0 62 20 77 9 7 11 12 4 13 -6 0
-14 8 -16 18 -4 16 -5 16 -6 0z"/>
<path d="M255 1310 c-3 -5 -1 -10 4 -10 6 0 11 5 11 10 0 6 -2 10 -4 10 -3 0
-8 -4 -11 -10z"/>
<path d="M440 1295 c-11 -13 -8 -14 18 -9 17 4 32 1 36 -5 5 -7 -3 -11 -22
-11 -34 0 -55 -20 -50 -47 2 -13 13 -18 40 -18 35 -1 36 1 41 39 3 22 1 46 -5
53 -14 17 -43 16 -58 -2z m48 -57 c-5 -15 -58 -24 -58 -10 0 15 12 22 38 22
14 0 22 -5 20 -12z"/>
<path d="M607 1292 c-25 -27 -22 -79 3 -87 21 -7 50 9 50 27 0 6 -7 5 -15 -2
-32 -26 -63 18 -33 48 16 16 45 15 52 0 3 -7 5 -4 3 7 -3 27 -39 31 -60 7z"/>
<path d="M816 1291 c-35 -39 0 -111 42 -85 24 16 39 61 26 82 -16 24 -47 26
-68 3z m60 -15 c9 -24 -15 -58 -39 -54 -25 3 -34 32 -17 53 16 19 49 19 56 1z"/>
<path d="M926 1293 c-17 -61 -17 -83 -2 -89 9 -3 23 -1 31 6 12 10 15 10 15
-1 1 -29 18 16 23 61 l6 45 -12 -35 c-17 -49 -25 -60 -48 -60 -20 0 -20 8 -2
73 2 9 2 17 -1 17 -2 0 -7 -8 -10 -17z"/>
<path d="M1036 1288 c-34 -49 -8 -101 39 -80 14 7 25 16 25 22 0 6 -7 6 -19
-1 -20 -13 -51 -6 -51 11 0 5 18 10 40 10 32 0 40 4 40 18 0 43 -49 56 -74 20z
m59 -8 c4 -6 -7 -10 -25 -10 -18 0 -29 4 -25 10 3 6 15 10 25 10 10 0 22 -4
25 -10z"/>
<path d="M1269 1300 c-22 -13 -32 -56 -19 -80 12 -22 40 -26 58 -8 19 19 14
30 -7 17 -20 -13 -51 -6 -51 11 0 5 18 10 40 10 32 0 40 4 40 18 0 35 -30 50
-61 32z m51 -20 c0 -5 -14 -10 -31 -10 -17 0 -28 4 -24 10 3 6 17 10 31 10 13
0 24 -4 24 -10z"/>
<path d="M1430 1295 c-11 -13 -8 -14 18 -9 17 4 32 1 36 -5 5 -7 -3 -11 -22
-11 -34 0 -55 -20 -50 -47 2 -13 13 -18 40 -18 35 -1 36 1 41 39 3 22 1 46 -5
53 -14 17 -43 16 -58 -2z m48 -57 c-5 -15 -58 -24 -58 -10 0 15 12 22 38 22
14 0 22 -5 20 -12z"/>
<path d="M1536 1288 c-30 -42 -9 -99 30 -84 10 4 14 2 11 -6 -2 -7 -18 -12
-36 -11 -27 1 -30 -1 -20 -13 18 -22 52 -13 66 16 14 30 29 128 18 118 -4 -4
-9 -22 -11 -40 -5 -39 -16 -51 -40 -46 -39 7 -23 68 18 68 10 0 16 5 13 10
-10 17 -33 11 -49 -12z"/>
<path d="M1659 1300 c-22 -13 -32 -56 -19 -80 12 -22 40 -26 58 -8 19 19 14
30 -7 17 -20 -13 -51 -6 -51 11 0 5 18 10 40 10 32 0 40 4 40 18 0 35 -30 50
-61 32z m51 -20 c0 -5 -14 -10 -31 -10 -17 0 -28 4 -24 10 3 6 17 10 31 10 13
0 24 -4 24 -10z"/>
<path d="M1750 1256 c-13 -62 -6 -70 11 -14 10 32 20 44 37 46 25 4 27 -6 13
-56 -5 -17 -6 -32 -1 -32 10 0 23 86 15 100 -3 5 -19 8 -35 7 -27 -2 -30 -7
-40 -51z"/>
<path d="M1883 1302 c-21 -13 -34 -61 -23 -83 17 -30 70 -19 70 15 0 6 -5 5
-12 -2 -7 -7 -20 -12 -30 -12 -13 0 -18 8 -18 30 0 35 23 49 51 31 21 -13 26
-2 7 17 -14 14 -28 15 -45 4z"/>
<path d="M1976 1295 c-22 -22 -28 -52 -16 -75 14 -26 42 -26 65 0 10 11 13 20
7 20 -6 0 -14 -4 -17 -10 -10 -16 -45 -12 -45 5 0 10 11 15 35 15 30 0 35 3
35 24 0 35 -37 47 -64 21z m54 -15 c0 -5 -14 -10 -31 -10 -17 0 -28 4 -24 10
3 6 17 10 31 10 13 0 24 -4 24 -10z"/>
<path d="M2149 1300 c-22 -13 -32 -56 -19 -80 12 -22 40 -26 58 -8 19 19 14
30 -7 17 -20 -13 -51 -6 -51 11 0 5 18 10 40 10 32 0 40 4 40 18 0 35 -30 50
-61 32z m51 -20 c0 -5 -14 -10 -31 -10 -17 0 -28 4 -24 10 3 6 17 10 31 10 13
0 24 -4 24 -10z"/>
<path d="M2257 1303 c-15 -14 -6 -40 19 -51 14 -7 22 -17 19 -22 -9 -14 -38
-12 -54 3 -11 10 -13 9 -9 -2 7 -25 36 -37 56 -25 27 18 26 42 -2 55 -36 17
-33 33 5 25 27 -5 30 -4 19 9 -13 16 -42 20 -53 8z"/>
<path d="M2454 1264 c-8 -54 3 -71 35 -55 16 9 21 9 22 -1 0 -7 7 12 14 42 7
30 12 57 9 59 -2 2 -5 -2 -7 -10 -18 -65 -24 -74 -45 -77 -22 -3 -23 -1 -17
42 4 25 5 46 2 46 -3 0 -9 -21 -13 -46z"/>
<path d="M2562 1255 c-9 -45 -8 -78 1 -44 19 65 24 74 46 77 23 4 23 2 18 -45
-6 -43 -5 -45 4 -14 17 55 9 76 -28 76 -30 1 -32 -2 -41 -50z"/>
<path d="M2687 1292 c-21 -23 -22 -65 -2 -82 17 -14 51 -5 59 15 4 12 2 13
-13 3 -20 -12 -51 -5 -51 12 0 5 18 10 40 10 41 0 47 8 30 41 -13 24 -42 25
-63 1z m58 -12 c4 -6 -7 -10 -25 -10 -18 0 -29 4 -25 10 3 6 15 10 25 10 10 0
22 -4 25 -10z"/>
<path d="M2859 1300 c-22 -13 -32 -56 -19 -80 12 -22 40 -26 58 -8 19 19 14
30 -7 17 -20 -13 -51 -6 -51 11 0 5 18 10 40 10 32 0 40 4 40 18 0 35 -30 50
-61 32z m51 -20 c0 -5 -14 -10 -31 -10 -17 0 -28 4 -24 10 3 6 17 10 31 10 13
0 24 -4 24 -10z"/>
<path d="M2964 1284 c14 -30 14 -32 -9 -54 -14 -13 -23 -26 -20 -28 3 -3 16 5
29 17 l24 23 7 -22 c4 -12 9 -19 12 -17 2 3 0 15 -7 26 -9 18 -7 27 10 51 12
17 18 30 13 30 -4 0 -14 -10 -22 -22 l-13 -21 -20 24 -19 24 15 -31z"/>
<path d="M3073 1302 c-21 -13 -34 -61 -23 -83 17 -30 70 -19 70 15 0 6 -5 5
-12 -2 -7 -7 -20 -12 -30 -12 -13 0 -18 8 -18 30 0 35 23 49 51 31 21 -13 26
-2 7 17 -14 14 -28 15 -45 4z"/>
<path d="M3166 1295 c-22 -22 -28 -52 -16 -75 14 -26 42 -26 65 0 10 11 13 20
7 20 -6 0 -14 -4 -17 -10 -10 -16 -45 -12 -45 5 0 10 11 15 35 15 30 0 35 3
35 24 0 35 -37 47 -64 21z m54 -15 c0 -5 -14 -10 -31 -10 -17 0 -28 4 -24 10
3 6 17 10 31 10 13 0 24 -4 24 -10z"/>
<path d="M3366 1295 c-22 -22 -28 -52 -16 -75 14 -26 42 -26 65 0 10 11 13 20
7 20 -6 0 -14 -4 -17 -10 -10 -16 -45 -12 -45 5 0 10 11 15 35 15 30 0 35 3
35 24 0 35 -37 47 -64 21z m54 -15 c0 -5 -14 -10 -31 -10 -17 0 -28 4 -24 10
3 6 17 10 31 10 13 0 24 -4 24 -10z"/>
<path d="M3462 1255 c-9 -45 -8 -78 1 -44 19 65 24 74 46 77 23 4 23 2 18 -45
-6 -43 -5 -45 4 -14 17 55 9 76 -28 76 -30 1 -32 -2 -41 -50z"/>
<path d="M3649 1300 c-22 -13 -32 -56 -19 -80 12 -22 40 -26 58 -8 19 19 14
30 -7 17 -20 -13 -51 -6 -51 11 0 5 18 10 40 10 32 0 40 4 40 18 0 35 -30 50
-61 32z m51 -20 c0 -5 -14 -10 -31 -10 -17 0 -28 4 -24 10 3 6 17 10 31 10 13
0 24 -4 24 -10z"/>
<path d="M3810 1295 c-11 -13 -8 -14 18 -9 17 4 32 1 36 -5 5 -7 -3 -11 -22
-11 -34 0 -55 -20 -50 -47 2 -13 13 -18 40 -18 35 -1 36 1 41 39 3 22 1 46 -5
53 -14 17 -43 16 -58 -2z m48 -57 c-5 -15 -58 -24 -58 -10 0 15 12 22 38 22
14 0 22 -5 20 -12z"/>
<path d="M3916 1288 c-30 -42 -9 -99 30 -84 10 4 14 2 11 -6 -2 -7 -18 -12
-36 -11 -27 1 -30 -1 -20 -13 18 -22 52 -13 66 16 14 30 29 128 18 118 -4 -4
-9 -22 -11 -40 -5 -39 -16 -51 -40 -46 -39 7 -23 68 18 68 10 0 16 5 13 10
-10 17 -33 11 -49 -12z"/>
<path d="M4039 1300 c-22 -13 -32 -56 -19 -80 12 -22 40 -26 58 -8 19 19 14
30 -7 17 -20 -13 -51 -6 -51 11 0 5 18 10 40 10 32 0 40 4 40 18 0 35 -30 50
-61 32z m51 -20 c0 -5 -14 -10 -31 -10 -17 0 -28 4 -24 10 3 6 17 10 31 10 13
0 24 -4 24 -10z"/>
<path d="M4130 1256 c-13 -62 -6 -70 11 -14 10 32 20 44 37 46 25 4 27 -6 13
-56 -5 -17 -6 -32 -1 -32 10 0 23 86 15 100 -3 5 -19 8 -35 7 -27 -2 -30 -7
-40 -51z"/>
<path d="M4263 1302 c-21 -13 -34 -61 -23 -83 17 -30 70 -19 70 15 0 6 -5 5
-12 -2 -7 -7 -20 -12 -30 -12 -13 0 -18 8 -18 30 0 35 23 49 51 31 21 -13 26
-2 7 17 -14 14 -28 15 -45 4z"/>
<path d="M4356 1295 c-22 -22 -28 -52 -16 -75 14 -26 42 -26 65 0 10 11 13 20
7 20 -6 0 -14 -4 -17 -10 -10 -16 -45 -12 -45 5 0 10 11 15 35 15 30 0 35 3
35 24 0 35 -37 47 -64 21z m54 -15 c0 -5 -14 -10 -31 -10 -17 0 -28 4 -24 10
3 6 17 10 31 10 13 0 24 -4 24 -10z"/>
<path d="M4508 1255 c4 -60 13 -69 30 -30 16 35 15 43 -3 19 -13 -18 -14 -16
-15 24 0 23 -3 42 -7 42 -5 0 -6 -25 -5 -55z"/>
<path d="M4556 1294 c-8 -22 -8 -26 4 -19 6 4 10 -8 10 -29 0 -53 14 -50 43
10 32 64 28 73 -5 12 l-23 -43 -3 43 c-3 43 -15 55 -26 26z"/>
<path d="M4666 1295 c-22 -22 -28 -52 -16 -75 14 -26 42 -26 65 0 10 11 13 20
7 20 -6 0 -14 -4 -17 -10 -10 -16 -45 -12 -45 5 0 10 11 15 35 15 30 0 35 3
35 24 0 35 -37 47 -64 21z m54 -15 c0 -5 -14 -10 -31 -10 -17 0 -28 4 -24 10
3 6 17 10 31 10 13 0 24 -4 24 -10z"/>
<path d="M5166 1295 c-22 -22 -28 -52 -16 -75 14 -26 42 -26 65 0 10 11 13 20
7 20 -6 0 -14 -4 -17 -10 -10 -16 -45 -12 -45 5 0 10 11 15 35 15 30 0 35 3
35 24 0 35 -37 47 -64 21z m54 -15 c0 -5 -14 -10 -31 -10 -17 0 -28 4 -24 10
3 6 17 10 31 10 13 0 24 -4 24 -10z"/>
<path d="M5283 1304 c-21 -9 -15 -32 12 -50 14 -9 25 -20 25 -25 0 -14 -48
-11 -54 4 -3 6 -5 3 -3 -8 2 -15 10 -20 32 -20 42 0 46 32 9 63 l-29 24 33 -4
c20 -3 31 -1 29 6 -4 12 -35 18 -54 10z"/>
<path d="M1135 1210 c3 -5 10 -10 16 -10 5 0 9 5 9 10 0 6 -7 10 -16 10 -8 0
-12 -4 -9 -10z"/>
<path d="M2335 1210 c3 -5 10 -10 16 -10 5 0 9 5 9 10 0 6 -7 10 -16 10 -8 0
-12 -4 -9 -10z"/>
<path d="M4925 1210 c-3 -5 -1 -10 4 -10 6 0 11 5 11 10 0 6 -2 10 -4 10 -3 0
-8 -4 -11 -10z"/>
<path d="M655 1068 c-12 -54 -25 -113 -25 -118 0 -13 57 -7 73 7 19 17 22 59
7 83 -8 13 -13 13 -31 2 -20 -13 -21 -12 -14 17 4 17 4 31 1 31 -3 0 -8 -10
-11 -22z m53 -61 c5 -23 -15 -47 -39 -47 -13 0 -19 7 -19 23 0 44 50 64 58 24z"/>
<path d="M886 1063 c-7 -29 -10 -31 -26 -21 -30 19 -62 -16 -58 -61 3 -34 5
-36 38 -36 34 0 34 0 47 65 13 65 12 112 -1 53z m-18 -59 c4 -25 -22 -49 -43
-40 -31 12 -9 70 25 64 8 -2 16 -13 18 -24z"/>
<path d="M1140 1079 c0 -5 5 -7 10 -4 6 3 10 8 10 11 0 2 -4 4 -10 4 -5 0 -10
-5 -10 -11z"/>
<path d="M2175 1079 c-11 -17 1 -21 15 -4 8 9 8 15 2 15 -6 0 -14 -5 -17 -11z"/>
<path d="M2690 1086 c0 -2 7 -9 15 -16 13 -11 14 -10 9 4 -5 14 -24 23 -24 12z"/>
<path d="M3611 1019 c-7 -38 -11 -72 -9 -75 3 -2 10 28 17 67 7 38 11 72 9 75
-3 2 -10 -28 -17 -67z"/>
<path d="M3671 1074 c0 -11 3 -14 6 -6 3 7 2 16 -1 19 -3 4 -6 -2 -5 -13z"/>
<path d="M4572 1051 c-7 -21 -12 -48 -12 -59 0 -21 -32 -38 -50 -27 -27 16 -5
58 35 67 19 5 19 5 1 13 -37 16 -76 -66 -43 -93 6 -6 24 -10 38 -9 25 2 28 7
39 70 14 77 9 97 -8 38z"/>
<path d="M1965 1064 c-11 -26 -17 -124 -7 -124 4 0 7 18 7 41 0 22 6 44 13 48
9 5 10 15 4 31 -8 22 -9 22 -17 4z"/>
<path d="M3154 1069 c-4 -7 -8 -33 -10 -58 -2 -40 -1 -42 6 -17 5 16 15 33 22
38 10 7 10 11 1 14 -7 3 -9 12 -6 20 6 17 -3 19 -13 3z"/>
<path d="M5006 1060 c-4 -14 -9 -46 -11 -72 -3 -37 -1 -48 11 -48 8 0 14 5 14
10 0 6 -5 10 -10 10 -15 0 -1 53 19 68 11 9 12 15 5 20 -6 4 -13 14 -16 22 -3
10 -7 7 -12 -10z"/>
<path d="M388 998 c5 -60 9 -69 22 -48 13 20 12 33 0 25 -6 -4 -10 6 -10 22 0
15 -4 34 -9 41 -5 8 -6 -9 -3 -40z"/>
<path d="M432 1025 c-16 -35 -15 -43 3 -19 13 18 14 16 15 -23 0 -24 4 -43 8
-43 4 0 20 25 35 55 15 30 23 55 18 55 -4 0 -16 -19 -26 -42 l-19 -43 -4 43
c-4 48 -14 53 -30 17z"/>
<path d="M536 1028 c-34 -49 -8 -101 39 -80 14 7 25 16 25 22 0 6 -7 6 -19 -1
-20 -13 -51 -6 -51 11 0 5 18 10 40 10 32 0 40 4 40 18 0 43 -49 56 -74 20z
m59 -8 c4 -6 -7 -10 -25 -10 -18 0 -29 4 -25 10 3 6 15 10 25 10 10 0 22 -4
25 -10z"/>
<path d="M926 1028 c-34 -49 -8 -101 39 -80 14 7 25 16 25 22 0 6 -7 6 -19 -1
-20 -13 -51 -6 -51 11 0 5 18 10 40 10 32 0 40 4 40 18 0 43 -49 56 -74 20z
m59 -8 c4 -6 -7 -10 -25 -10 -18 0 -29 4 -25 10 3 6 15 10 25 10 10 0 22 -4
25 -10z"/>
<path d="M1039 1034 c-12 -14 -10 -19 14 -38 15 -12 27 -25 27 -29 0 -12 -35
-8 -48 5 -9 9 -12 8 -12 -4 0 -31 54 -38 70 -8 11 20 9 22 -35 56 -19 14 -18
15 13 11 20 -2 31 0 29 7 -6 18 -43 18 -58 0z"/>
<path d="M1137 1043 c-3 -4 -8 -30 -11 -58 l-5 -50 14 55 c13 51 14 72 2 53z"/>
<path d="M1186 1035 c-22 -23 -28 -52 -16 -76 9 -16 17 -19 37 -14 18 4 24 2
21 -7 -3 -7 -19 -13 -36 -13 -18 0 -31 -4 -29 -10 2 -5 17 -10 33 -10 24 0 31
6 40 35 16 51 27 118 16 101 -7 -9 -12 -10 -16 -2 -10 15 -32 14 -50 -4z m52
-28 c5 -23 -15 -47 -39 -47 -14 0 -19 7 -19 28 0 16 3 32 7 36 13 13 48 1 51
-17z"/>
<path d="M1295 1040 c-2 -3 -6 -27 -9 -55 -4 -38 -3 -42 3 -18 10 40 28 63 49
63 12 0 14 -9 8 -47 -7 -54 2 -52 14 2 11 50 4 64 -32 62 -16 -1 -31 -4 -33
-7z"/>
<path d="M1407 1032 c-21 -23 -22 -65 -2 -82 17 -14 51 -5 59 15 4 12 2 13
-13 3 -20 -12 -51 -5 -51 12 0 5 18 10 40 10 41 0 47 8 30 41 -13 24 -42 25
-63 1z m58 -12 c4 -6 -7 -10 -25 -10 -18 0 -29 4 -25 10 3 6 15 10 25 10 10 0
22 -4 25 -10z"/>
<path d="M1517 1043 c-3 -5 -8 -30 -11 -58 -5 -46 -5 -47 5 -15 5 19 22 45 37
57 15 13 22 23 15 23 -6 0 -15 -4 -18 -10 -3 -5 -11 -10 -16 -10 -6 0 -7 5 -4
10 3 6 4 10 1 10 -3 0 -7 -3 -9 -7z"/>
<path d="M1587 1043 c-15 -14 -6 -40 18 -51 14 -6 25 -16 25 -22 0 -14 -43
-13 -58 2 -8 8 -12 8 -12 1 0 -16 27 -35 46 -31 9 2 22 11 28 21 9 15 6 23
-19 44 l-30 25 34 -6 c29 -5 32 -4 21 9 -13 16 -42 20 -53 8z"/>
<path d="M1749 1040 c-22 -13 -32 -56 -19 -80 23 -43 80 -9 80 47 0 39 -27 53
-61 33z m49 -33 c5 -23 -15 -47 -40 -47 -24 0 -33 23 -18 50 14 26 53 24 58
-3z"/>
<path d="M1840 996 c-13 -62 -6 -70 11 -14 10 32 20 44 37 46 25 4 27 -6 13
-56 -5 -17 -6 -32 -1 -32 10 0 23 86 15 100 -3 5 -19 8 -35 7 -27 -2 -30 -7
-40 -51z"/>
<path d="M2062 998 c-12 -64 -8 -76 8 -18 7 27 18 44 31 47 10 3 19 9 19 14 0
13 -17 11 -26 -2 -5 -8 -9 -8 -14 1 -4 6 -12 -12 -18 -42z"/>
<path d="M2149 1040 c-22 -13 -32 -56 -19 -80 12 -22 40 -26 58 -8 19 19 14
30 -7 17 -20 -13 -51 -6 -51 11 0 5 18 10 40 10 32 0 40 4 40 18 0 35 -30 50
-61 32z m51 -20 c0 -5 -14 -10 -31 -10 -17 0 -28 4 -24 10 3 6 17 10 31 10 13
0 24 -4 24 -10z"/>
<path d="M2246 1019 c-3 -17 -6 -42 -6 -55 0 -21 4 -23 33 -20 30 3 33 7 43
55 7 28 8 51 4 51 -4 0 -10 -18 -14 -39 -5 -36 -20 -51 -48 -51 -7 0 -8 16 -4
45 8 51 2 61 -8 14z"/>
<path d="M2367 1043 c-15 -14 -6 -40 18 -51 14 -6 25 -16 25 -22 0 -14 -43
-13 -58 2 -8 8 -12 8 -12 1 0 -16 27 -35 46 -31 9 2 22 11 28 21 9 15 6 23
-19 44 l-30 25 34 -6 c29 -5 32 -4 21 9 -13 16 -42 20 -53 8z"/>
<path d="M2467 1043 c-15 -14 -6 -40 18 -51 14 -6 25 -16 25 -22 0 -14 -43
-13 -58 2 -8 8 -12 8 -12 1 0 -16 27 -35 46 -31 9 2 22 11 28 21 9 15 6 23
-19 44 l-30 25 34 -6 c29 -5 32 -4 21 9 -13 16 -42 20 -53 8z"/>
<path d="M2556 1013 c-4 -21 -9 -47 -12 -58 -4 -16 -3 -17 4 -5 11 17 26 100
19 100 -3 0 -8 -17 -11 -37z"/>
<path d="M2673 1043 c-24 -9 -13 -20 17 -15 18 3 30 0 30 -7 0 -6 -11 -11 -24
-11 -24 0 -56 -23 -56 -39 0 -16 25 -29 52 -28 24 2 28 7 34 44 3 23 3 46 -1
52 -6 11 -31 13 -52 4z m37 -68 c-7 -8 -21 -15 -31 -15 -11 0 -19 7 -19 15 0
10 10 15 31 15 27 0 30 -2 19 -15z"/>
<path d="M2825 1026 c-33 -50 3 -109 44 -71 24 21 20 35 -4 15 -32 -26 -63 18
-33 48 16 16 45 15 52 0 3 -7 5 -4 3 7 -3 31 -42 31 -62 1z"/>
<path d="M2930 1035 c-11 -13 -8 -14 18 -9 17 4 32 1 36 -5 5 -7 -3 -11 -22
-11 -34 0 -55 -20 -50 -47 2 -13 13 -18 40 -18 35 -1 36 1 41 39 3 22 1 46 -5
53 -14 17 -43 16 -58 -2z m48 -57 c-5 -15 -58 -24 -58 -10 0 15 12 22 38 22
14 0 22 -5 20 -12z"/>
<path d="M3031 995 c-7 -33 -15 -69 -17 -80 -4 -16 -3 -17 5 -5 6 8 11 23 11
33 0 14 3 15 19 5 17 -10 23 -9 40 6 41 37 18 121 -23 87 -11 -9 -15 -9 -19 1
-2 7 -10 -14 -16 -47z m67 12 c5 -23 -15 -47 -39 -47 -13 0 -19 7 -19 23 0 44
50 64 58 24z"/>
<path d="M3206 1033 c-17 -61 -17 -83 -2 -89 9 -3 23 -1 31 6 12 10 15 10 15
-1 1 -29 18 16 23 61 l6 45 -12 -35 c-17 -49 -25 -60 -48 -60 -20 0 -20 8 -2
73 2 9 2 17 -1 17 -2 0 -7 -8 -10 -17z"/>
<path d="M3317 1043 c-3 -5 -8 -30 -11 -58 -5 -46 -5 -47 5 -15 5 19 22 45 37
57 15 13 22 23 15 23 -6 0 -15 -4 -18 -10 -3 -5 -11 -10 -16 -10 -6 0 -7 5 -4
10 3 6 4 10 1 10 -3 0 -7 -3 -9 -7z"/>
<path d="M3387 1032 c-21 -23 -22 -65 -2 -82 17 -14 51 -5 59 15 4 12 2 13
-13 3 -20 -12 -51 -5 -51 12 0 5 18 10 40 10 41 0 47 8 30 41 -13 24 -42 25
-63 1z m58 -12 c4 -6 -7 -10 -25 -10 -18 0 -29 4 -25 10 3 6 15 10 25 10 10 0
22 -4 25 -10z"/>
<path d="M3525 1040 c-4 -6 -13 -9 -20 -6 -9 3 -15 -10 -20 -41 -3 -24 -4 -47
-1 -51 3 -3 6 7 6 22 0 16 11 38 26 53 14 14 23 27 21 30 -3 2 -8 -1 -12 -7z"/>
<path d="M3706 1028 c-34 -49 -8 -101 39 -80 14 7 25 16 25 22 0 6 -7 6 -19
-1 -20 -13 -51 -6 -51 11 0 5 18 10 40 10 32 0 40 4 40 18 0 43 -49 56 -74 20z
m59 -8 c4 -6 -7 -10 -25 -10 -18 0 -29 4 -25 10 3 6 15 10 25 10 10 0 22 -4
25 -10z"/>
<path d="M3819 1034 c-12 -14 -10 -19 14 -38 15 -12 27 -25 27 -29 0 -12 -35
-8 -48 5 -9 9 -12 8 -12 -4 0 -31 54 -38 70 -8 11 20 9 22 -35 56 -19 14 -18
15 13 11 20 -2 31 0 29 7 -6 18 -43 18 -58 0z"/>
<path d="M3919 1034 c-12 -14 -10 -19 14 -38 15 -12 27 -25 27 -29 0 -12 -35
-8 -48 5 -9 9 -12 8 -12 -4 0 -31 54 -38 70 -8 11 20 9 22 -35 56 -19 14 -18
15 13 11 20 -2 31 0 29 7 -6 18 -43 18 -58 0z"/>
<path d="M4016 1028 c-34 -49 -8 -101 39 -80 14 7 25 16 25 22 0 6 -7 6 -19
-1 -20 -13 -51 -6 -51 11 0 5 18 10 40 10 32 0 40 4 40 18 0 43 -49 56 -74 20z
m59 -8 c4 -6 -7 -10 -25 -10 -18 0 -29 4 -25 10 3 6 15 10 25 10 10 0 22 -4
25 -10z"/>
<path d="M4120 996 c-13 -62 -6 -70 11 -14 10 32 20 44 37 46 25 4 27 -6 13
-56 -5 -17 -6 -32 -1 -32 10 0 23 86 15 100 -3 5 -19 8 -35 7 -27 -2 -30 -7
-40 -51z"/>
<path d="M4247 1038 c-24 -19 -32 -71 -13 -87 18 -16 52 -6 61 17 5 14 4 15
-6 5 -32 -32 -71 -3 -49 36 12 23 40 27 58 9 7 -7 12 -8 12 -2 0 13 -21 34
-35 34 -6 0 -19 -6 -28 -12z"/>
<path d="M4349 1040 c-22 -13 -32 -56 -19 -80 12 -22 40 -26 58 -8 19 19 14
30 -7 17 -20 -13 -51 -6 -51 11 0 5 18 10 40 10 32 0 40 4 40 18 0 35 -30 50
-61 32z m51 -20 c0 -5 -14 -10 -31 -10 -17 0 -28 4 -24 10 3 6 17 10 31 10 13
0 24 -4 24 -10z"/>
<path d="M4616 1028 c-34 -49 -8 -101 39 -80 14 7 25 16 25 22 0 6 -7 6 -19
-1 -20 -13 -51 -6 -51 11 0 5 18 10 40 10 32 0 40 4 40 18 0 43 -49 56 -74 20z
m59 -8 c4 -6 -7 -10 -25 -10 -18 0 -29 4 -25 10 3 6 15 10 25 10 10 0 22 -4
25 -10z"/>
<path d="M4785 1040 c-2 -3 -6 -27 -9 -55 -4 -38 -3 -42 3 -18 10 40 28 63 49
63 12 0 14 -9 8 -47 -7 -54 2 -52 14 2 11 50 4 64 -32 62 -16 -1 -31 -4 -33
-7z"/>
<path d="M4895 1026 c-20 -30 -16 -65 8 -80 22 -14 49 2 62 38 19 55 -39 90
-70 42z m62 -12 c9 -24 -10 -49 -38 -49 -27 0 -37 28 -19 50 17 20 49 19 57
-1z"/>
<path d="M5052 998 c-12 -64 -8 -76 8 -18 7 27 18 44 31 47 10 3 19 9 19 14 0
13 -17 11 -26 -2 -5 -8 -9 -8 -14 1 -4 6 -12 -12 -18 -42z"/>
<path d="M5139 1040 c-22 -13 -32 -56 -19 -80 12 -22 40 -26 58 -8 19 19 14
30 -7 17 -20 -13 -51 -6 -51 11 0 5 18 10 40 10 32 0 40 4 40 18 0 35 -30 50
-61 32z m51 -20 c0 -5 -14 -10 -31 -10 -17 0 -28 4 -24 10 3 6 17 10 31 10 13
0 24 -4 24 -10z"/>
<path d="M3135 950 c3 -5 10 -10 16 -10 5 0 9 5 9 10 0 6 -7 10 -16 10 -8 0
-12 -4 -9 -10z"/>
<path d="M990 819 c0 -5 5 -7 10 -4 6 3 10 8 10 11 0 2 -4 4 -10 4 -5 0 -10
-5 -10 -11z"/>
<path d="M1550 826 c0 -2 7 -9 15 -16 13 -11 14 -10 9 4 -5 14 -24 23 -24 12z"/>
<path d="M1695 808 c-19 -83 -25 -121 -21 -125 2 -3 9 22 16 54 6 32 14 66 16
76 3 9 3 17 0 17 -3 0 -8 -10 -11 -22z"/>
<path d="M1741 814 c0 -11 3 -14 6 -6 3 7 2 16 -1 19 -3 4 -6 -2 -5 -13z"/>
<path d="M1780 819 c0 -5 5 -7 10 -4 6 3 10 8 10 11 0 2 -4 4 -10 4 -5 0 -10
-5 -10 -11z"/>
<path d="M2025 819 c-11 -17 1 -21 15 -4 8 9 8 15 2 15 -6 0 -14 -5 -17 -11z"/>
<path d="M2540 826 c0 -2 7 -9 15 -16 13 -11 14 -10 9 4 -5 14 -24 23 -24 12z"/>
<path d="M3630 810 c-28 -28 -36 -69 -19 -99 20 -36 58 -39 89 -6 25 26 19 36
-6 10 -22 -22 -61 -19 -74 6 -26 49 35 109 82 80 20 -13 25 -2 6 17 -18 18
-56 14 -78 -8z"/>
<path d="M3861 759 c-7 -38 -11 -72 -9 -75 3 -2 10 28 17 67 7 38 11 72 9 75
-3 2 -10 -28 -17 -67z"/>
<path d="M4850 819 c0 -5 5 -7 10 -4 6 3 10 8 10 11 0 2 -4 4 -10 4 -5 0 -10
-5 -10 -11z"/>
<path d="M4960 807 c0 -31 -8 -38 -30 -25 -24 15 -46 -3 -55 -43 -9 -38 8 -59
46 -56 26 2 29 6 39 57 6 30 14 63 16 73 3 9 1 17 -5 17 -6 0 -11 -10 -11 -23z
m-14 -51 c8 -22 -14 -56 -37 -56 -25 0 -34 22 -19 49 12 24 48 28 56 7z"/>
<path d="M5036 814 c-5 -14 -4 -15 9 -4 17 14 19 20 6 20 -5 0 -12 -7 -15 -16z"/>
<path d="M5206 817 c3 -10 9 -15 12 -12 3 3 0 11 -7 18 -10 9 -11 8 -5 -6z"/>
<path d="M576 800 c-4 -14 -9 -46 -11 -72 -3 -37 -1 -48 11 -48 8 0 14 5 14
10 0 6 -5 10 -10 10 -15 0 -1 53 19 68 11 9 12 15 5 20 -6 4 -13 14 -16 22 -3
10 -7 7 -12 -10z"/>
<path d="M1414 809 c-4 -7 -8 -33 -10 -58 -2 -40 -1 -42 6 -17 5 16 15 33 22
38 10 7 10 11 1 14 -7 3 -9 12 -6 20 6 17 -3 19 -13 3z"/>
<path d="M1935 804 c-11 -26 -17 -124 -7 -124 4 0 7 18 7 41 0 22 6 44 13 48
9 5 10 15 4 31 -8 22 -9 22 -17 4z"/>
<path d="M2904 809 c-4 -7 -8 -33 -10 -58 -2 -40 -1 -42 6 -17 5 16 15 33 22
38 10 7 10 11 1 14 -7 3 -9 12 -6 20 6 17 -3 19 -13 3z"/>
<path d="M3341 808 c0 -10 -4 -18 -8 -18 -5 0 -9 -25 -10 -55 -1 -42 2 -55 13
-55 8 0 14 5 14 10 0 6 -5 10 -11 10 -16 0 0 62 20 77 9 7 11 12 4 13 -6 0
-14 8 -16 18 -4 16 -5 16 -6 0z"/>
<path d="M357 772 c-21 -23 -22 -65 -2 -82 17 -14 51 -5 59 15 4 12 2 13 -13
3 -20 -12 -51 -5 -51 12 0 5 18 10 40 10 41 0 47 8 30 41 -13 24 -42 25 -63 1z
m58 -12 c4 -6 -7 -10 -25 -10 -18 0 -29 4 -25 10 3 6 15 10 25 10 10 0 22 -4
25 -10z"/>
<path d="M465 780 c-2 -3 -6 -27 -9 -55 -4 -38 -3 -42 3 -18 10 40 28 63 49
63 12 0 14 -9 8 -47 -7 -54 2 -52 14 2 11 50 4 64 -32 62 -16 -1 -31 -4 -33
-7z"/>
<path d="M622 738 c-12 -64 -8 -76 8 -18 7 27 18 44 31 47 10 3 19 9 19 14 0
13 -17 11 -26 -2 -5 -8 -9 -8 -14 1 -4 6 -12 -12 -18 -42z"/>
<path d="M709 780 c-22 -13 -32 -56 -19 -80 12 -22 40 -26 58 -8 19 19 14 30
-7 17 -20 -13 -51 -6 -51 11 0 5 18 10 40 10 32 0 40 4 40 18 0 35 -30 50 -61
32z m51 -20 c0 -5 -14 -10 -31 -10 -17 0 -28 4 -24 10 3 6 17 10 31 10 13 0
24 -4 24 -10z"/>
<path d="M801 735 c-7 -33 -15 -69 -17 -80 -4 -16 -3 -17 5 -5 6 8 11 23 11
33 0 14 3 15 19 5 17 -10 23 -9 40 6 41 37 18 121 -23 87 -11 -9 -15 -9 -19 1
-2 7 -10 -14 -16 -47z m67 12 c5 -23 -15 -47 -39 -47 -13 0 -19 7 -19 23 0 44
50 64 58 24z"/>
<path d="M912 738 c-12 -64 -8 -76 8 -18 7 27 18 44 31 47 10 3 19 9 19 14 0
13 -17 11 -26 -2 -5 -8 -9 -8 -14 1 -4 6 -12 -12 -18 -42z"/>
<path d="M987 783 c-3 -4 -8 -30 -11 -58 l-5 -50 14 55 c13 51 14 72 2 53z"/>
<path d="M1037 783 c-15 -14 -6 -40 18 -51 14 -6 25 -16 25 -22 0 -14 -43 -13
-58 2 -8 8 -12 8 -12 1 0 -16 27 -35 46 -31 9 2 22 11 28 21 9 15 6 23 -19 44
l-30 25 34 -6 c29 -5 32 -4 21 9 -13 16 -42 20 -53 8z"/>
<path d="M1136 775 c-22 -22 -28 -52 -16 -75 14 -26 42 -26 65 0 10 11 13 20
7 20 -6 0 -14 -4 -17 -10 -10 -16 -45 -12 -45 5 0 10 11 15 35 15 30 0 35 3
35 24 0 35 -37 47 -64 21z m54 -15 c0 -5 -14 -10 -31 -10 -17 0 -28 4 -24 10
3 6 17 10 31 10 13 0 24 -4 24 -10z"/>
<path d="M1309 780 c-22 -13 -32 -56 -19 -80 12 -22 40 -26 58 -8 19 19 14 30
-7 17 -20 -13 -51 -6 -51 11 0 5 18 10 40 10 32 0 40 4 40 18 0 35 -30 50 -61
32z m51 -20 c0 -5 -14 -10 -31 -10 -17 0 -28 4 -24 10 3 6 17 10 31 10 13 0
24 -4 24 -10z"/>
<path d="M1533 783 c-24 -9 -13 -20 17 -15 18 3 30 0 30 -7 0 -6 -11 -11 -24
-11 -24 0 -56 -23 -56 -39 0 -16 25 -29 52 -28 24 2 28 7 34 44 3 23 3 46 -1
52 -6 11 -31 13 -52 4z m37 -68 c-7 -8 -21 -15 -31 -15 -11 0 -19 7 -19 15 0
10 10 15 31 15 27 0 30 -2 19 -15z"/>
<path d="M1777 783 c-3 -4 -8 -30 -11 -58 l-5 -50 14 55 c13 51 14 72 2 53z"/>
<path d="M1812 735 c-9 -45 -8 -78 1 -44 19 65 24 74 46 77 23 4 23 2 18 -45
-6 -43 -5 -45 4 -14 17 55 9 76 -28 76 -30 1 -32 -2 -41 -50z"/>
<path d="M1999 780 c-22 -13 -32 -56 -19 -80 12 -22 40 -26 58 -8 19 19 14 30
-7 17 -20 -13 -51 -6 -51 11 0 5 18 10 40 10 32 0 40 4 40 18 0 35 -30 50 -61
32z m51 -20 c0 -5 -14 -10 -31 -10 -17 0 -28 4 -24 10 3 6 17 10 31 10 13 0
24 -4 24 -10z"/>
<path d="M2094 764 c-25 -37 -9 -80 28 -77 20 1 25 -2 21 -14 -4 -10 -15 -13
-35 -11 -18 3 -27 0 -25 -6 6 -17 43 -19 60 -2 8 8 18 36 22 62 3 26 9 54 12
63 4 14 3 14 -6 1 -8 -12 -13 -12 -23 -2 -19 19 -36 14 -54 -14z m62 -8 c8
-22 -14 -56 -37 -56 -25 0 -34 22 -19 49 12 24 48 28 56 7z"/>
<path d="M2202 738 c-12 -64 -8 -76 8 -18 7 27 18 44 31 47 10 3 19 9 19 14 0
13 -17 11 -26 -2 -5 -8 -9 -8 -14 1 -4 6 -12 -12 -18 -42z"/>
<path d="M2276 768 c-34 -49 -8 -101 39 -80 14 7 25 16 25 22 0 6 -7 6 -19 -1
-20 -13 -51 -6 -51 11 0 5 18 10 40 10 32 0 40 4 40 18 0 43 -49 56 -74 20z
m59 -8 c4 -6 -7 -10 -25 -10 -18 0 -29 4 -25 10 3 6 15 10 25 10 10 0 22 -4
25 -10z"/>
<path d="M2381 740 c-14 -64 -9 -76 8 -19 8 26 20 43 32 46 10 3 19 9 19 14 0
13 -17 11 -26 -2 -5 -8 -9 -8 -14 1 -5 8 -12 -8 -19 -40z"/>
<path d="M2523 783 c-24 -9 -13 -20 17 -15 18 3 30 0 30 -7 0 -6 -11 -11 -24
-11 -24 0 -56 -23 -56 -39 0 -16 25 -29 52 -28 24 2 28 7 34 44 3 23 3 46 -1
52 -6 11 -31 13 -52 4z m37 -68 c-7 -8 -21 -15 -31 -15 -11 0 -19 7 -19 15 0
10 10 15 31 15 27 0 30 -2 19 -15z"/>
<path d="M2675 770 c-2 -8 -6 -33 -9 -55 l-6 -40 11 35 c13 43 33 65 52 57 12
-4 13 -14 7 -44 -5 -20 -7 -39 -5 -41 7 -8 25 76 19 91 -7 20 -63 18 -69 -3z"/>
<path d="M2799 780 c-22 -13 -32 -56 -19 -80 23 -43 80 -9 80 47 0 39 -27 53
-61 33z m49 -33 c5 -23 -15 -47 -40 -47 -24 0 -33 23 -18 50 14 26 53 24 58
-3z"/>
<path d="M2957 783 c-3 -5 -8 -30 -11 -58 -5 -46 -5 -47 5 -15 5 19 22 45 37
57 15 13 22 23 15 23 -6 0 -15 -4 -18 -10 -3 -5 -11 -10 -16 -10 -6 0 -7 5 -4
10 3 6 4 10 1 10 -3 0 -7 -3 -9 -7z"/>
<path d="M3026 775 c-22 -22 -28 -52 -16 -75 14 -26 42 -26 65 0 10 11 13 20
7 20 -6 0 -14 -4 -17 -10 -10 -16 -45 -12 -45 5 0 10 11 15 35 15 30 0 35 3
35 24 0 35 -37 47 -64 21z m54 -15 c0 -5 -14 -10 -31 -10 -17 0 -28 4 -24 10
3 6 17 10 31 10 13 0 24 -4 24 -10z"/>
<path d="M3197 783 c-15 -14 -6 -40 19 -51 14 -7 22 -17 19 -22 -9 -14 -38
-12 -54 3 -11 10 -13 9 -9 -2 7 -25 36 -37 56 -25 27 18 26 42 -2 55 -36 17
-33 33 5 25 27 -5 30 -4 19 9 -13 16 -42 20 -53 8z"/>
<path d="M3281 739 c-6 -28 -10 -54 -7 -56 2 -2 9 19 15 48 6 28 10 54 7 56
-2 2 -9 -19 -15 -48z"/>
<path d="M3399 780 c-22 -13 -32 -56 -19 -80 12 -22 40 -26 58 -8 19 19 14 30
-7 17 -20 -13 -51 -6 -51 11 0 5 18 10 40 10 32 0 40 4 40 18 0 35 -30 50 -61
32z m51 -20 c0 -5 -14 -10 -31 -10 -17 0 -28 4 -24 10 3 6 17 10 31 10 13 0
24 -4 24 -10z"/>
<path d="M3756 768 c-34 -49 -8 -101 39 -80 14 7 25 16 25 22 0 6 -7 6 -19 -1
-20 -13 -51 -6 -51 11 0 5 18 10 40 10 32 0 40 4 40 18 0 43 -49 56 -74 20z
m59 -8 c4 -6 -7 -10 -25 -10 -18 0 -29 4 -25 10 3 6 15 10 25 10 10 0 22 -4
25 -10z"/>
<path d="M3923 783 c-24 -9 -13 -20 17 -15 18 3 30 0 30 -7 0 -6 -11 -11 -24
-11 -24 0 -56 -23 -56 -39 0 -16 25 -29 52 -28 24 2 28 7 34 44 3 23 3 46 -1
52 -6 11 -31 13 -52 4z m37 -68 c-7 -8 -21 -15 -31 -15 -11 0 -19 7 -19 15 0
10 10 15 31 15 27 0 30 -2 19 -15z"/>
<path d="M4070 736 c-13 -62 -6 -70 11 -14 10 32 20 44 37 46 25 4 27 -6 13
-56 -5 -17 -6 -32 -1 -32 10 0 23 86 15 100 -3 5 -19 8 -35 7 -27 -2 -30 -7
-40 -51z"/>
<path d="M4199 780 c-22 -13 -32 -56 -19 -80 23 -43 80 -9 80 47 0 39 -27 53
-61 33z m49 -33 c5 -23 -15 -47 -40 -47 -24 0 -33 23 -18 50 14 26 53 24 58
-3z"/>
<path d="M4294 744 c-8 -54 3 -71 35 -55 16 9 21 9 22 -1 0 -7 7 12 14 42 7
30 12 57 9 59 -2 2 -5 -2 -7 -10 -18 -65 -24 -74 -45 -77 -22 -3 -23 -1 -17
42 4 25 5 46 2 46 -3 0 -9 -21 -13 -46z"/>
<path d="M4417 783 c-15 -14 -6 -40 18 -51 14 -6 25 -16 25 -22 0 -14 -43 -13
-58 2 -8 8 -12 8 -12 1 0 -16 27 -35 46 -31 9 2 22 11 28 21 9 15 6 23 -19 44
l-30 25 34 -6 c29 -5 32 -4 21 9 -13 16 -42 20 -53 8z"/>
<path d="M4570 775 c-11 -13 -8 -14 18 -9 17 4 32 1 36 -5 5 -7 -3 -11 -22
-11 -34 0 -55 -20 -50 -47 2 -13 13 -18 40 -18 35 -1 36 1 41 39 3 22 1 46 -5
53 -14 17 -43 16 -58 -2z m48 -57 c-5 -15 -58 -24 -58 -10 0 15 12 22 38 22
14 0 22 -5 20 -12z"/>
<path d="M4741 777 c-8 -11 -5 -13 19 -9 18 3 30 0 30 -7 0 -6 -11 -11 -24
-11 -28 0 -49 -22 -44 -47 2 -13 13 -18 40 -18 36 -1 36 0 40 43 2 23 -1 47
-6 52 -14 14 -42 12 -55 -3z m39 -62 c-13 -16 -50 -21 -50 -7 0 15 13 22 38
22 21 0 22 -2 12 -15z"/>
<path d="M4847 783 c-3 -4 -8 -30 -11 -58 l-5 -50 14 55 c13 51 14 72 2 53z"/>
<path d="M5006 775 c-22 -22 -28 -52 -16 -75 14 -26 42 -26 65 0 10 11 13 20
7 20 -6 0 -14 -4 -17 -10 -10 -16 -45 -12 -45 5 0 10 11 15 35 15 30 0 35 3
35 24 0 35 -37 47 -64 21z m54 -15 c0 -5 -14 -10 -31 -10 -17 0 -28 4 -24 10
3 6 17 10 31 10 13 0 24 -4 24 -10z"/>
<path d="M5170 775 c-11 -13 -8 -14 18 -9 17 4 32 1 36 -5 5 -7 -3 -11 -22
-11 -34 0 -55 -20 -50 -47 2 -13 13 -18 40 -18 35 -1 36 1 41 39 3 22 1 46 -5
53 -14 17 -43 16 -58 -2z m48 -57 c-5 -15 -58 -24 -58 -10 0 15 12 22 38 22
14 0 22 -5 20 -12z"/>
<path d="M1395 690 c3 -5 10 -10 16 -10 5 0 9 5 9 10 0 6 -7 10 -16 10 -8 0
-12 -4 -9 -10z"/>
<path d="M2885 690 c3 -5 10 -10 16 -10 5 0 9 5 9 10 0 6 -7 10 -16 10 -8 0
-12 -4 -9 -10z"/>
<path d="M3485 690 c-3 -5 -1 -10 4 -10 6 0 11 5 11 10 0 6 -2 10 -4 10 -3 0
-8 -4 -11 -10z"/>
<path d="M1276 543 c-7 -29 -10 -31 -26 -21 -30 19 -62 -16 -58 -61 3 -34 5
-36 38 -36 34 0 34 0 47 65 13 65 12 112 -1 53z m-18 -59 c4 -25 -22 -49 -43
-40 -31 12 -9 70 25 64 8 -2 16 -13 18 -24z"/>
<path d="M1547 563 c-9 -15 -19 -98 -12 -91 5 4 11 28 15 53 7 44 6 53 -3 38z"/>
<path d="M1655 548 c-19 -83 -25 -121 -21 -125 2 -3 9 22 16 54 6 32 14 66 16
76 3 9 3 17 0 17 -3 0 -8 -10 -11 -22z"/>
<path d="M3221 499 c-7 -38 -11 -72 -9 -75 3 -2 10 28 17 67 7 38 11 72 9 75
-3 2 -10 -28 -17 -67z"/>
<path d="M3746 557 c3 -10 9 -15 12 -12 3 3 0 11 -7 18 -10 9 -11 8 -5 -6z"/>
<path d="M3868 495 l-15 -75 43 0 c24 0 44 5 44 10 0 6 -16 10 -36 10 -32 0
-36 2 -31 23 11 42 20 107 15 107 -3 0 -12 -34 -20 -75z"/>
<path d="M4367 563 c-4 -3 -7 -16 -6 -27 0 -19 1 -19 10 3 10 24 8 36 -4 24z"/>
<path d="M4395 550 c-4 -12 -5 -24 -2 -27 3 -2 8 5 12 17 4 12 5 24 2 27 -3 2
-8 -5 -12 -17z"/>
<path d="M2626 540 c-4 -14 -9 -46 -11 -72 -3 -37 -1 -48 11 -48 8 0 14 5 14
10 0 6 -5 10 -10 10 -15 0 -1 53 19 68 11 9 12 15 5 20 -6 4 -13 14 -16 22 -3
10 -7 7 -12 -10z"/>
<path d="M1316 511 c-35 -39 0 -111 42 -85 24 16 39 61 26 82 -16 24 -47 26
-68 3z m60 -15 c9 -24 -15 -58 -39 -54 -25 3 -34 32 -17 53 16 19 49 19 56 1z"/>
<path d="M1426 513 c-17 -61 -17 -83 -2 -89 9 -3 23 -1 31 6 12 10 15 10 15
-1 1 -29 18 16 23 61 l6 45 -12 -35 c-17 -49 -25 -60 -48 -60 -20 0 -20 8 -2
73 2 9 2 17 -1 17 -2 0 -7 -8 -10 -17z"/>
<path d="M1565 520 c-3 -5 1 -10 10 -10 21 0 29 -24 15 -49 -11 -21 -50 -30
-50 -11 0 6 -4 10 -10 10 -5 0 -10 -8 -10 -17 0 -28 56 -28 75 0 18 26 19 59
3 75 -15 15 -25 15 -33 2z"/>
<path d="M1697 512 c-21 -23 -22 -65 -2 -82 17 -14 51 -5 59 15 4 12 2 13 -13
3 -20 -12 -51 -5 -51 12 0 5 18 10 40 10 41 0 47 8 30 41 -13 24 -42 25 -63 1z
m58 -12 c4 -6 -7 -10 -25 -10 -18 0 -29 4 -25 10 3 6 15 10 25 10 10 0 22 -4
25 -10z"/>
<path d="M1835 520 c-4 -6 -13 -9 -20 -6 -9 3 -15 -10 -20 -41 -3 -24 -4 -47
-1 -51 3 -3 6 7 6 22 0 16 11 38 26 53 14 14 23 27 21 30 -3 2 -8 -1 -12 -7z"/>
<path d="M1925 510 c-2 -8 -6 -33 -9 -55 l-6 -40 11 35 c13 43 33 65 52 57 12
-4 13 -14 7 -44 -5 -20 -7 -39 -5 -41 7 -8 25 76 19 91 -7 20 -63 18 -69 -3z"/>
<path d="M2035 506 c-20 -30 -16 -65 8 -80 22 -14 49 2 62 38 19 55 -39 90
-70 42z m62 -12 c9 -24 -10 -49 -38 -49 -27 0 -37 28 -19 50 17 20 49 19 57
-1z"/>
<path d="M2157 523 c-15 -14 -6 -40 19 -51 14 -7 22 -17 19 -22 -9 -14 -38
-12 -54 3 -11 10 -13 9 -9 -2 7 -25 36 -37 56 -25 27 18 26 42 -2 55 -36 17
-33 33 5 25 27 -5 30 -4 19 9 -13 16 -42 20 -53 8z"/>
<path d="M2299 492 c5 -34 6 -35 9 -8 2 16 0 32 -5 37 -5 5 -7 -7 -4 -29z"/>
<path d="M2348 485 c-12 -24 -25 -42 -30 -39 -4 3 -8 -2 -8 -10 0 -30 16 -16
43 39 15 30 25 55 22 55 -3 0 -15 -20 -27 -45z"/>
<path d="M2407 512 c-21 -23 -22 -65 -2 -82 17 -14 51 -5 59 15 4 12 2 13 -13
3 -20 -12 -51 -5 -51 12 0 5 18 10 40 10 41 0 47 8 30 41 -13 24 -42 25 -63 1z
m58 -12 c4 -6 -7 -10 -25 -10 -18 0 -29 4 -25 10 3 6 15 10 25 10 10 0 22 -4
25 -10z"/>
<path d="M2515 510 c-2 -8 -6 -33 -9 -55 l-6 -40 11 35 c13 43 33 65 52 57 12
-4 13 -14 7 -44 -5 -20 -7 -39 -5 -41 7 -8 25 76 19 91 -7 20 -63 18 -69 -3z"/>
<path d="M2686 515 c-22 -22 -28 -52 -16 -75 14 -26 42 -26 65 0 10 11 13 20
7 20 -6 0 -14 -4 -17 -10 -10 -16 -45 -12 -45 5 0 10 11 15 35 15 30 0 35 3
35 24 0 35 -37 47 -64 21z m54 -15 c0 -5 -14 -10 -31 -10 -17 0 -28 4 -24 10
3 6 17 10 31 10 13 0 24 -4 24 -10z"/>
<path d="M2803 524 c-21 -9 -15 -32 12 -50 14 -9 25 -20 25 -25 0 -14 -48 -11
-54 4 -3 6 -5 3 -3 -8 2 -15 10 -20 32 -20 42 0 46 32 9 63 l-29 24 33 -4 c20
-3 31 -1 29 6 -4 12 -35 18 -54 10z"/>
<path d="M2959 520 c-22 -13 -32 -56 -19 -80 12 -22 40 -26 58 -8 19 19 14 30
-7 17 -20 -13 -51 -6 -51 11 0 5 18 10 40 10 32 0 40 4 40 18 0 35 -30 50 -61
32z m51 -20 c0 -5 -14 -10 -31 -10 -17 0 -28 4 -24 10 3 6 17 10 31 10 13 0
24 -4 24 -10z"/>
<path d="M3052 475 c-9 -45 -8 -78 1 -44 19 65 24 74 46 77 23 4 23 2 18 -45
-6 -43 -5 -45 4 -14 17 55 9 76 -28 76 -30 1 -32 -2 -41 -50z"/>
<path d="M3266 493 c-4 -21 -9 -47 -12 -58 -4 -16 -3 -17 4 -5 11 17 26 100
19 100 -3 0 -8 -17 -11 -37z"/>
<path d="M3316 508 c-30 -42 -9 -99 30 -84 10 4 14 2 11 -6 -2 -7 -18 -12 -36
-11 -27 1 -30 -1 -20 -13 18 -22 52 -13 66 16 14 30 29 128 18 118 -4 -4 -9
-22 -11 -40 -5 -39 -16 -51 -40 -46 -39 7 -23 68 18 68 10 0 16 5 13 10 -10
17 -33 11 -49 -12z"/>
<path d="M3425 510 c-2 -8 -6 -33 -9 -55 l-6 -40 11 35 c13 43 33 65 52 57 12
-4 13 -14 7 -44 -5 -20 -7 -39 -5 -41 7 -8 25 76 19 91 -7 20 -63 18 -69 -3z"/>
<path d="M3549 520 c-22 -13 -32 -56 -19 -80 12 -22 40 -26 58 -8 19 19 14 30
-7 17 -20 -13 -51 -6 -51 11 0 5 18 10 40 10 32 0 40 4 40 18 0 35 -30 50 -61
32z m51 -20 c0 -5 -14 -10 -31 -10 -17 0 -28 4 -24 10 3 6 17 10 31 10 13 0
24 -4 24 -10z"/>
<path d="M3710 515 c-11 -13 -8 -14 18 -9 17 4 32 1 36 -5 5 -7 -3 -11 -22
-11 -34 0 -55 -20 -50 -47 2 -13 13 -18 40 -18 35 -1 36 1 41 39 3 22 1 46 -5
53 -14 17 -43 16 -58 -2z m48 -57 c-5 -15 -58 -24 -58 -10 0 15 12 22 38 22
14 0 22 -5 20 -12z"/>
<path d="M3971 525 c0 -5 4 -30 8 -54 10 -50 5 -71 -15 -71 -8 0 -14 -4 -14
-10 0 -15 15 -12 32 8 22 25 77 132 69 132 -5 0 -16 -18 -26 -40 -21 -47 -35
-52 -35 -12 0 15 -5 34 -10 42 -5 8 -10 11 -9 5z"/>
<path d="M4089 520 c-22 -13 -32 -56 -19 -80 23 -43 80 -9 80 47 0 39 -27 53
-61 33z m49 -33 c5 -23 -15 -47 -40 -47 -24 0 -33 23 -18 50 14 26 53 24 58
-3z"/>
<path d="M4182 475 c-9 -45 -8 -78 1 -44 19 65 24 74 46 77 23 4 23 2 18 -45
-6 -43 -5 -45 4 -14 17 55 9 76 -28 76 -30 1 -32 -2 -41 -50z"/>
<path d="M1518 303 c-2 -5 -1 -28 3 -53 l6 -45 1 53 c2 48 -2 63 -10 45z"/>
<path d="M1979 293 c-13 -15 -12 -15 9 -2 19 12 25 12 45 0 20 -13 21 -13 8 2
-7 10 -21 17 -31 17 -10 0 -24 -7 -31 -17z"/>
<path d="M2181 265 c-1 -48 0 -51 27 -52 26 -2 26 -2 4 8 -17 6 -22 15 -20 31
4 33 35 35 41 3 4 -24 4 -24 3 2 -1 21 -6 28 -21 28 -11 0 -23 7 -27 15 -4 8
-7 -8 -7 -35z"/>
<path d="M2433 260 c0 -30 2 -43 4 -27 2 15 2 39 0 55 -2 15 -4 2 -4 -28z"/>
<path d="M2541 258 c1 -29 4 -43 6 -30 3 15 11 22 28 22 13 0 26 4 29 8 3 5
-8 6 -25 4 -25 -4 -29 -1 -29 18 0 19 4 22 29 18 17 -2 28 -1 25 4 -3 4 -18 8
-35 8 -29 0 -29 -1 -28 -52z"/>
<path d="M2653 303 c9 -2 23 -2 30 0 6 3 -1 5 -18 5 -16 0 -22 -2 -12 -5z"/>
<path d="M2749 293 c-13 -15 -12 -15 9 -2 19 12 25 12 45 0 20 -13 21 -13 8 2
-7 10 -21 17 -31 17 -10 0 -24 -7 -31 -17z"/>
<path d="M2930 297 c0 -8 -10 -13 -22 -13 -18 1 -23 -5 -24 -27 -1 -26 -1 -26
3 -2 6 32 37 30 41 -3 2 -16 -3 -25 -20 -31 -22 -10 -22 -10 5 -8 25 1 27 4
27 49 0 26 -2 48 -5 48 -3 0 -5 -6 -5 -13z"/>
<path d="M3473 298 c-5 -7 -6 -31 -2 -53 l6 -40 2 38 c0 20 1 40 0 43 0 4 5
11 13 15 8 5 9 9 2 9 -6 0 -16 -6 -21 -12z"/>
<path d="M3783 260 c0 -30 2 -43 4 -27 2 15 2 39 0 55 -2 15 -4 2 -4 -28z"/>
<path d="M1556 282 c-3 -5 6 -7 19 -4 33 6 32 -14 -1 -22 -35 -9 -29 -41 9
-42 26 -1 28 1 25 35 -2 28 -8 37 -25 39 -11 2 -24 -1 -27 -6z m44 -42 c0 -12
-28 -25 -36 -17 -9 9 6 27 22 27 8 0 14 -5 14 -10z"/>
<path d="M1703 250 c0 -25 2 -35 4 -22 2 12 2 32 0 45 -2 12 -4 2 -4 -23z"/>
<path d="M1733 250 c0 -25 2 -35 4 -22 2 12 2 32 0 45 -2 12 -4 2 -4 -23z"/>
<path d="M1764 278 c8 -4 25 -4 38 1 20 8 18 9 -15 8 -24 -1 -32 -4 -23 -9z"/>
<path d="M1857 283 c-3 -5 5 -8 18 -8 13 0 21 3 18 8 -2 4 -10 7 -18 7 -8 0
-16 -3 -18 -7z"/>
<path d="M2072 260 c0 -19 2 -27 5 -17 2 9 2 25 0 35 -3 9 -5 1 -5 -18z"/>
<path d="M2120 260 c0 -22 -6 -33 -22 -40 -22 -8 -21 -9 5 -7 24 1 27 5 27 39
0 21 -2 38 -5 38 -3 0 -5 -14 -5 -30z"/>
<path d="M2153 250 c0 -25 2 -35 4 -22 2 12 2 32 0 45 -2 12 -4 2 -4 -23z"/>
<path d="M2267 283 c-3 -5 6 -8 19 -8 13 0 24 3 24 8 0 4 -9 7 -19 7 -11 0
-22 -3 -24 -7z"/>
<path d="M2344 276 c-3 -8 -4 -27 -1 -43 3 -24 4 -23 6 9 0 20 7 39 14 41 9 4
9 6 -1 6 -7 1 -15 -5 -18 -13z"/>
<path d="M2392 278 c-22 -22 -7 -69 23 -68 5 0 2 5 -7 11 -10 5 -18 19 -18 29
0 10 8 24 18 29 9 6 12 11 7 11 -6 0 -16 -5 -23 -12z"/>
<path d="M2966 281 c-4 -5 3 -7 14 -4 23 6 26 13 6 13 -8 0 -17 -4 -20 -9z"/>
<path d="M3287 284 c-4 -4 -7 -12 -7 -18 0 -6 4 -5 9 3 12 19 41 6 41 -19 0
-25 -28 -38 -42 -19 -8 12 -9 11 -5 -1 5 -20 37 -19 51 3 18 28 -24 74 -47 51z"/>
<path d="M3368 283 c7 -3 16 -2 19 1 4 3 -2 6 -13 5 -11 0 -14 -3 -6 -6z"/>
<path d="M3510 275 c-15 -18 -10 -45 12 -59 12 -7 21 -7 28 0 8 8 4 10 -12 10
-18 -1 -23 4 -23 24 0 19 5 25 22 24 12 0 20 3 17 8 -8 13 -30 9 -44 -7z"/>
<path d="M3582 260 c0 -19 2 -27 5 -17 2 9 2 25 0 35 -3 9 -5 1 -5 -18z"/>
<path d="M3630 260 c0 -22 -6 -33 -22 -40 -22 -8 -21 -9 5 -7 24 1 27 5 27 39
0 21 -2 38 -5 38 -3 0 -5 -14 -5 -30z"/>
<path d="M3717 283 c-3 -5 5 -8 18 -8 13 0 21 3 18 8 -2 4 -10 7 -18 7 -8 0
-16 -3 -18 -7z"/>
<path d="M3807 283 c6 -4 13 -24 16 -43 4 -34 4 -33 3 4 -1 26 -6 41 -16 43
-10 3 -11 2 -3 -4z"/>
<path d="M3860 275 c-15 -18 -10 -45 12 -59 12 -7 21 -7 28 0 8 8 4 10 -11 10
-12 -1 -24 5 -26 12 -3 7 6 12 24 13 l28 1 -30 8 c-24 5 -27 8 -13 14 9 4 22
4 29 0 8 -4 9 -3 5 4 -10 16 -31 15 -46 -3z"/>
<path d="M4016 281 c-4 -5 3 -7 14 -4 23 6 26 13 6 13 -8 0 -17 -4 -20 -9z"/>
<path d="M4097 283 c-13 -13 -7 -31 13 -36 11 -3 20 -11 20 -17 0 -8 -8 -10
-21 -7 -16 4 -19 3 -11 -5 14 -14 42 -3 42 16 0 8 -9 18 -20 21 -26 8 -26 29
0 22 11 -3 18 -1 14 4 -6 11 -28 12 -37 2z"/>
<path d="M3663 245 c0 -22 2 -30 4 -17 2 12 2 30 0 40 -3 9 -5 -1 -4 -23z"/>
<path d="M1647 254 c2 -6 0 -15 -6 -19 -6 -3 -11 -11 -11 -18 0 -6 6 -2 14 8
13 18 13 18 24 -1 6 -10 12 -14 12 -7 0 6 -5 15 -11 18 -6 4 -8 13 -6 19 3 7
-1 13 -8 13 -7 0 -11 -6 -8 -13z"/>
<path d="M2985 260 l-30 -8 33 -1 c17 0 32 4 32 9 0 6 -1 9 -2 9 -2 -1 -16 -5
-33 -9z"/>
<path d="M4035 260 l-30 -8 33 -1 c17 0 32 4 32 9 0 6 -1 9 -2 9 -2 -1 -16 -5
-33 -9z"/>
<path d="M1840 252 c0 -5 14 -7 30 -4 17 2 30 6 30 8 0 2 -13 4 -30 4 -16 0
-30 -4 -30 -8z"/>
<path d="M2022 253 c9 -2 19 -12 21 -21 3 -12 5 -10 6 6 1 17 -4 22 -21 21
-16 -1 -18 -3 -6 -6z"/>
<path d="M2270 250 c-18 -12 -2 -12 25 0 13 6 15 9 5 9 -8 0 -22 -4 -30 -9z"/>
<path d="M2792 253 c9 -2 19 -12 21 -21 3 -12 5 -10 6 6 1 17 -4 22 -21 21
-16 -1 -18 -3 -6 -6z"/>
<path d="M3105 249 l-30 -7 33 -1 c17 0 32 -6 32 -13 0 -6 3 -9 6 -5 15 15
-12 33 -41 26z"/>
<path d="M3361 256 c2 -2 15 -9 29 -16 23 -12 24 -12 11 3 -7 10 -20 17 -29
17 -8 0 -13 -2 -11 -4z"/>
<path d="M3220 245 c0 -5 4 -16 9 -23 6 -11 10 -10 15 4 3 9 4 19 1 22 -3 3
-5 -1 -5 -9 0 -11 -2 -11 -10 1 -5 8 -10 11 -10 5z"/>
<path d="M1979 228 c7 -10 23 -17 35 -17 20 1 20 2 1 6 -11 3 -27 10 -35 17
-13 10 -13 9 -1 -6z"/>
<path d="M2749 228 c7 -10 23 -17 35 -17 20 1 20 2 1 6 -11 3 -27 10 -35 17
-13 10 -13 9 -1 -6z"/>
<path d="M2963 230 c5 -18 35 -26 50 -11 7 7 3 8 -13 4 -13 -4 -26 0 -32 8 -8
12 -9 11 -5 -1z"/>
<path d="M4013 230 c5 -18 35 -26 50 -11 7 7 3 8 -13 4 -13 -4 -26 0 -32 8 -8
12 -9 11 -5 -1z"/>
<path d="M1858 218 c5 -5 16 -8 23 -6 8 3 3 7 -10 11 -17 4 -21 3 -13 -5z"/>
<path d="M2267 219 c7 -7 15 -10 18 -7 3 3 -2 9 -12 12 -14 6 -15 5 -6 -5z"/>
<path d="M3717 218 c2 -5 10 -8 18 -8 8 0 16 3 18 8 3 4 -5 7 -18 7 -13 0 -21
-3 -18 -7z"/>
<path d="M2653 213 c9 -2 23 -2 30 0 6 3 -1 5 -18 5 -16 0 -22 -2 -12 -5z"/>
<path d="M3368 213 c6 -2 18 -2 25 0 6 3 1 5 -13 5 -14 0 -19 -2 -12 -5z"/>
</g>
</svg>
