<?xml version="1.0" standalone="no"?>
<!DOCTYPE svg PUBLIC "-//W3C//DTD SVG 20010904//EN"
 "http://www.w3.org/TR/2001/REC-SVG-20010904/DTD/svg10.dtd">
<svg version="1.0" xmlns="http://www.w3.org/2000/svg"
 width="476.000000pt" height="99.000000pt" viewBox="0 0 476.000000 99.000000"
 preserveAspectRatio="xMidYMid meet">

<g transform="translate(0.000000,99.000000) scale(0.100000,-0.100000)"
fill="#000000" stroke="none">
<path d="M342 618 c2 -77 2 -78 5 -20 2 34 7 62 11 62 4 0 24 -27 46 -60 21
-33 42 -60 47 -60 5 0 9 36 9 80 0 94 -18 108 -22 18 l-3 -63 -38 63 c-21 34
-43 62 -48 62 -5 0 -8 -37 -7 -82z"/>
<path d="M1453 620 c0 -47 2 -66 4 -42 2 23 2 61 0 85 -2 23 -4 4 -4 -43z"/>
<path d="M1503 620 c0 -47 2 -66 4 -42 2 23 2 61 0 85 -2 23 -4 4 -4 -43z"/>
<path d="M2492 625 l-2 -80 27 -2 c46 -2 63 13 63 57 0 43 -25 66 -60 55 -15
-5 -19 0 -23 22 -2 15 -5 -8 -5 -52z m66 13 c19 -19 15 -66 -7 -78 -39 -20
-68 41 -35 74 19 19 26 20 42 4z"/>
<path d="M3590 674 c0 -21 -3 -24 -21 -19 -47 15 -80 -63 -41 -98 9 -8 29 -15
44 -14 28 2 28 2 28 80 0 42 -2 77 -5 77 -3 0 -5 -12 -5 -26z m-12 -36 c17
-17 15 -63 -4 -79 -14 -11 -19 -10 -35 10 -33 41 3 105 39 69z"/>
<path d="M3930 620 c0 -47 4 -80 10 -80 6 0 10 33 10 80 0 47 -4 80 -10 80 -6
0 -10 -33 -10 -80z"/>
<path d="M3980 690 c0 -5 5 -10 10 -10 6 0 10 5 10 10 0 6 -4 10 -10 10 -5 0
-10 -4 -10 -10z"/>
<path d="M921 678 c-1 -10 -6 -18 -12 -18 -8 0 -8 -4 -1 -13 6 -7 12 -32 14
-56 2 -29 8 -46 18 -49 12 -4 13 -2 3 9 -7 7 -13 32 -13 56 0 28 4 43 13 43 8
0 9 3 1 8 -6 4 -14 14 -17 22 -4 12 -6 11 -6 -2z"/>
<path d="M4279 676 c-8 -39 6 -129 21 -134 12 -4 13 -2 3 9 -16 17 -17 81 -1
97 8 8 9 12 1 12 -6 0 -13 8 -15 18 -4 15 -5 15 -9 -2z"/>
<path d="M507 642 c-33 -36 -10 -102 35 -102 42 0 63 73 30 103 -24 22 -45 21
-65 -1z m58 -8 c24 -25 6 -83 -27 -84 -13 0 -38 32 -38 50 0 19 25 50 40 50 5
0 16 -7 25 -16z"/>
<path d="M622 608 c-2 -49 1 -58 18 -63 12 -4 27 -2 35 5 10 8 14 8 18 -2 3
-7 5 16 4 52 0 52 -1 56 -4 18 -7 -88 -59 -88 -66 0 -3 46 -3 46 -5 -10z"/>
<path d="M753 653 c-26 -10 -13 -43 22 -57 38 -16 44 -30 19 -40 -21 -8 -20
-8 -38 10 -14 14 -16 14 -16 0 0 -21 46 -32 65 -16 26 22 18 50 -15 57 -36 7
-47 20 -31 36 9 9 16 8 31 -1 27 -16 35 -15 20 3 -12 15 -34 18 -57 8z"/>
<path d="M970 598 c0 -32 4 -58 10 -58 6 0 10 23 10 50 0 43 3 52 23 60 19 7
18 8 -10 7 l-33 -2 0 -57z"/>
<path d="M1062 648 c-7 -7 -12 -16 -12 -21 0 -5 7 -1 16 7 18 18 23 19 44 6
19 -11 4 -27 -29 -32 -35 -5 -50 -33 -29 -55 14 -14 22 -15 43 -5 15 7 25 8
25 2 0 -6 4 -10 9 -10 12 0 0 104 -13 112 -17 11 -41 9 -54 -4z m58 -63 c0
-20 -39 -40 -52 -27 -6 6 -8 18 -5 26 8 20 57 21 57 1z"/>
<path d="M1182 600 c11 -33 23 -60 26 -60 4 0 17 27 29 60 12 33 18 60 14 60
-5 0 -14 -20 -21 -45 -7 -25 -16 -45 -20 -45 -4 0 -13 20 -20 45 -7 25 -16 45
-21 45 -4 0 1 -27 13 -60z"/>
<path d="M1298 649 c-10 -5 -18 -15 -18 -21 0 -6 9 -3 20 7 21 19 55 14 48 -8
-3 -6 -18 -14 -34 -17 -23 -4 -30 -11 -32 -33 -4 -33 18 -45 53 -29 18 8 25 8
29 -1 2 -7 5 11 5 39 1 68 -25 91 -71 63z m52 -63 c0 -20 -25 -37 -44 -30 -16
6 -21 25 -9 37 12 13 53 7 53 -7z"/>
<path d="M1403 600 c0 -36 2 -50 4 -32 2 17 2 47 0 65 -2 17 -4 3 -4 -33z"/>
<path d="M1557 642 c-47 -52 18 -135 67 -86 33 33 10 104 -33 104 -10 0 -25
-8 -34 -18z m57 -8 c9 -8 16 -24 16 -34 0 -19 -25 -50 -40 -50 -5 0 -17 11
-26 25 -15 23 -15 27 0 50 19 29 29 31 50 9z"/>
<path d="M1672 600 c0 -65 2 -65 13 2 6 37 30 57 49 38 5 -5 13 -31 17 -58 l6
-47 2 51 c1 62 -16 83 -54 66 -18 -8 -25 -8 -29 1 -2 7 -4 -17 -4 -53z"/>
<path d="M1802 648 c-21 -21 -13 -37 23 -52 38 -16 44 -30 19 -40 -21 -8 -20
-8 -38 10 -9 8 -16 11 -16 6 0 -19 30 -34 55 -28 18 5 25 13 25 31 0 19 -7 26
-32 33 -17 4 -33 13 -35 19 -5 15 28 26 41 13 16 -16 30 -12 16 5 -15 18 -42
19 -58 3z"/>
<path d="M1978 649 c-10 -5 -18 -15 -18 -21 0 -6 8 -4 18 5 23 21 36 21 52 3
9 -12 5 -17 -29 -26 -34 -9 -41 -15 -41 -35 0 -28 30 -41 59 -26 14 8 21 8 24
-2 3 -6 6 11 6 39 1 68 -25 91 -71 63z m62 -58 c0 -11 -28 -41 -38 -41 -18 1
-34 20 -29 34 7 17 67 23 67 7z"/>
<path d="M2085 639 c8 -44 36 -102 44 -93 12 13 42 106 36 112 -2 3 -9 -8 -15
-24 -25 -70 -27 -72 -39 -39 -6 17 -16 39 -21 50 -9 18 -10 17 -5 -6z"/>
<path d="M2207 642 c-22 -24 -21 -65 1 -85 23 -21 43 -21 68 -1 19 16 13 16
-30 -2 -7 -3 -22 3 -32 13 -17 17 -16 18 29 21 51 3 57 13 31 50 -18 27 -45
28 -67 4z m51 -4 c21 -21 13 -38 -18 -38 -18 0 -30 5 -30 13 0 13 19 37 30 37
3 0 11 -5 18 -12z"/>
<path d="M2324 634 c-20 -29 -11 -69 19 -88 19 -12 47 0 56 25 3 9 -1 8 -13
-4 -21 -20 -28 -21 -44 -5 -17 17 -15 63 3 78 13 10 19 10 35 -5 21 -19 28 -7
8 13 -20 20 -46 14 -64 -14z"/>
<path d="M2626 644 c-24 -23 -21 -81 5 -94 23 -13 69 -5 69 11 0 6 -7 6 -20
-1 -14 -8 -26 -8 -40 0 -33 18 -23 30 26 30 42 0 45 1 39 23 -13 43 -52 59
-79 31z m52 -6 c21 -21 13 -38 -17 -38 -37 0 -46 13 -25 34 19 19 26 20 42 4z"/>
<path d="M2753 653 c-7 -2 -13 -11 -13 -20 0 -12 2 -12 16 1 18 18 23 19 44 6
19 -11 4 -27 -29 -32 -35 -5 -50 -33 -29 -55 14 -14 22 -15 43 -5 15 7 25 8
25 2 0 -6 3 -10 8 -10 11 0 1 104 -12 112 -12 9 -35 9 -53 1z m57 -68 c0 -22
-38 -39 -56 -24 -11 9 -12 15 -3 25 15 19 59 18 59 -1z"/>
<path d="M2862 608 c-2 -49 1 -58 18 -63 12 -4 27 -2 35 5 10 8 14 8 18 -2 3
-7 5 16 4 52 0 52 -1 56 -4 18 -2 -25 -11 -52 -19 -58 -23 -20 -42 5 -47 58
-3 46 -3 46 -5 -10z"/>
<path d="M2998 649 c-27 -15 -25 -85 2 -99 12 -6 29 -8 39 -5 20 6 37 35 21
35 -6 0 -10 -4 -10 -9 0 -15 -32 -22 -46 -10 -21 17 -17 66 5 79 15 7 23 6 35
-6 14 -13 16 -13 16 -1 0 25 -34 33 -62 16z"/>
<path d="M3112 653 c-38 -15 -32 -95 7 -108 36 -11 61 11 61 55 0 48 -27 69
-68 53z m46 -15 c34 -34 -7 -108 -44 -77 -27 22 -12 89 21 89 6 0 16 -5 23
-12z"/>
<path d="M3212 614 c-2 -62 15 -83 53 -66 18 8 25 8 29 -1 2 -7 5 16 5 51 1
35 -3 62 -9 62 -5 0 -10 -22 -10 -49 0 -36 -4 -51 -16 -55 -26 -10 -43 12 -47
62 l-3 47 -2 -51z"/>
<path d="M3331 583 c-1 -49 3 -83 9 -83 6 0 10 12 10 26 0 20 4 24 18 20 46
-15 76 64 39 101 -13 13 -21 14 -41 5 -19 -8 -26 -8 -30 1 -2 7 -5 -25 -5 -70z
m67 55 c16 -16 15 -63 -2 -77 -34 -28 -67 26 -40 66 16 26 25 28 42 11z"/>
<path d="M3658 649 c-27 -15 -25 -85 3 -99 23 -13 69 -5 69 11 0 6 -7 6 -20
-1 -14 -8 -26 -8 -40 0 -32 17 -23 30 20 30 33 0 40 3 40 19 0 22 -25 51 -43
51 -7 0 -20 -5 -29 -11z m50 -11 c23 -23 13 -38 -23 -38 -39 0 -48 21 -17 39
22 13 26 13 40 -1z"/>
<path d="M3838 649 c-27 -15 -25 -85 3 -100 24 -13 69 2 69 22 0 7 -8 5 -19
-5 -27 -25 -61 -6 -61 34 0 39 37 62 57 34 7 -9 15 -15 18 -12 8 8 -23 38 -38
38 -7 0 -20 -5 -29 -11z"/>
<path d="M3980 600 c0 -33 4 -60 10 -60 6 0 10 27 10 60 0 33 -4 60 -10 60 -6
0 -10 -27 -10 -60z"/>
<path d="M4048 649 c-27 -15 -25 -85 3 -99 23 -13 69 -5 69 11 0 6 -7 6 -20
-1 -14 -8 -26 -8 -40 0 -32 17 -23 30 20 30 33 0 40 3 40 19 0 22 -25 51 -43
51 -7 0 -20 -5 -29 -11z m50 -11 c23 -23 13 -38 -23 -38 -39 0 -48 21 -17 39
22 13 26 13 40 -1z"/>
<path d="M4150 598 c0 -32 4 -58 10 -58 6 0 10 22 10 49 0 36 4 51 16 55 26
10 43 -12 47 -62 l3 -47 2 52 c2 58 -6 68 -55 68 l-33 0 0 -57z"/>
<path d="M4346 647 c-23 -17 -12 -42 25 -53 34 -10 40 -23 16 -38 -12 -7 -21
-5 -36 8 -12 11 -21 14 -21 8 0 -21 40 -35 66 -23 34 15 30 40 -11 57 -19 8
-35 19 -35 24 0 17 29 23 45 10 9 -7 15 -8 15 -2 0 9 -22 22 -39 22 -4 0 -15
-6 -25 -13z"/>
<path d="M4450 553 c0 -5 5 -15 10 -23 8 -12 10 -11 10 8 0 12 -4 22 -10 22
-5 0 -10 -3 -10 -7z"/>
<path d="M2415 389 c-11 -17 1 -21 15 -4 8 9 8 15 2 15 -6 0 -14 -5 -17 -11z"/>
<path d="M2610 320 c0 -47 4 -80 10 -80 6 0 10 33 10 80 0 47 -4 80 -10 80 -6
0 -10 -33 -10 -80z"/>
<path d="M3000 390 c0 -5 5 -10 10 -10 6 0 10 5 10 10 0 6 -4 10 -10 10 -5 0
-10 -4 -10 -10z"/>
<path d="M2951 378 c-1 -10 -6 -18 -12 -18 -8 0 -8 -4 -1 -13 6 -7 12 -32 14
-56 2 -29 8 -46 18 -49 12 -4 13 -2 3 9 -7 7 -13 32 -13 56 0 28 4 43 13 43 8
0 9 3 1 8 -6 4 -14 14 -17 22 -4 12 -6 11 -6 -2z"/>
<path d="M1375 340 c21 -67 33 -95 41 -92 12 5 46 92 41 106 -2 6 -10 -7 -17
-29 -18 -58 -26 -62 -40 -18 -7 21 -17 43 -22 48 -7 7 -8 2 -3 -15z"/>
<path d="M1497 342 c-47 -52 18 -135 67 -86 33 33 10 104 -33 104 -10 0 -25
-8 -34 -18z m57 -8 c9 -8 16 -24 16 -34 0 -19 -25 -50 -40 -50 -5 0 -17 11
-26 25 -15 23 -15 27 0 50 19 29 29 31 50 9z"/>
<path d="M1613 300 c0 -36 2 -50 4 -32 2 17 2 47 0 65 -2 17 -4 3 -4 -33z"/>
<path d="M1664 334 c-20 -29 -11 -69 19 -88 19 -12 47 0 56 25 3 9 -1 8 -13
-4 -21 -20 -28 -21 -44 -5 -17 17 -15 63 3 78 13 10 19 10 35 -5 21 -19 28 -7
8 13 -20 20 -46 14 -64 -14z"/>
<path d="M1773 300 c0 -36 2 -50 4 -32 2 17 2 47 0 65 -2 17 -4 3 -4 -33z"/>
<path d="M1883 300 c0 -52 1 -56 4 -18 7 87 60 91 66 5 l3 -52 2 57 c2 49 -1
58 -18 63 -12 4 -27 2 -35 -5 -10 -8 -14 -8 -18 2 -3 7 -5 -16 -4 -52z"/>
<path d="M2022 353 c-38 -15 -32 -95 7 -108 36 -11 61 11 61 55 0 48 -27 69
-68 53z m46 -15 c34 -34 -7 -108 -44 -77 -27 22 -12 89 21 89 6 0 16 -5 23
-12z"/>
<path d="M2132 348 c-21 -21 -13 -37 23 -52 38 -16 44 -30 19 -40 -21 -8 -20
-8 -38 10 -9 8 -16 11 -16 6 0 -19 30 -34 55 -28 18 5 25 13 25 31 0 19 -7 26
-32 33 -17 4 -33 13 -35 19 -5 15 28 26 41 13 16 -16 30 -12 16 5 -15 18 -42
19 -58 3z"/>
<path d="M2302 295 c1 -53 2 -55 5 -15 5 46 19 74 34 64 5 -3 9 0 9 5 0 6 -11
10 -25 9 -24 -2 -25 -5 -23 -63z"/>
<path d="M2380 340 c-24 -24 -25 -48 -4 -78 18 -26 42 -28 70 -7 23 17 12 20
-15 3 -15 -9 -23 -9 -35 1 -26 22 -19 31 24 31 32 0 40 4 40 18 0 21 -29 52
-48 52 -7 0 -21 -9 -32 -20z m54 -6 c21 -21 12 -34 -25 -34 -30 0 -38 17 -17
38 16 16 23 15 42 -4z"/>
<path d="M2508 349 c-10 -5 -18 -15 -18 -21 0 -6 9 -3 20 7 21 19 55 14 48 -8
-3 -6 -18 -14 -34 -17 -23 -4 -30 -11 -32 -33 -4 -33 18 -45 53 -29 18 8 25 8
29 -1 2 -7 5 11 5 39 1 68 -25 91 -71 63z m52 -63 c0 -20 -25 -37 -44 -30 -16
6 -21 25 -9 37 12 13 53 7 53 -7z"/>
<path d="M2663 300 c0 -36 2 -50 4 -32 2 17 2 47 0 65 -2 17 -4 3 -4 -33z"/>
<path d="M2723 353 c-26 -10 -13 -43 22 -57 38 -16 44 -30 19 -40 -21 -8 -20
-8 -38 10 -14 14 -16 14 -16 0 0 -21 46 -32 65 -16 26 22 18 50 -15 57 -36 7
-47 20 -31 36 9 9 16 8 31 -1 27 -16 35 -15 20 3 -12 15 -34 18 -57 8z"/>
<path d="M2838 349 c-10 -5 -18 -15 -18 -21 0 -6 9 -3 20 7 21 19 55 14 48 -8
-3 -6 -18 -14 -34 -17 -23 -4 -30 -11 -32 -33 -4 -33 18 -45 53 -29 18 8 25 8
29 -1 2 -7 5 11 5 39 1 68 -25 91 -71 63z m52 -63 c0 -20 -25 -37 -44 -30 -16
6 -21 25 -9 37 12 13 53 7 53 -7z"/>
<path d="M3000 300 c0 -33 4 -60 10 -60 6 0 10 27 10 60 0 33 -4 60 -10 60 -6
0 -10 -27 -10 -60z"/>
<path d="M3068 349 c-26 -15 -25 -85 1 -99 11 -5 24 -10 30 -10 18 0 51 39 51
60 0 22 -33 60 -52 60 -7 0 -21 -5 -30 -11z m50 -11 c17 -17 15 -63 -2 -77
-23 -20 -56 4 -56 39 0 39 34 62 58 38z"/>
<path d="M3183 300 c0 -52 1 -56 4 -18 7 87 60 91 66 5 l3 -52 2 57 c2 49 -1
58 -18 63 -12 4 -27 2 -35 -5 -10 -8 -14 -8 -18 2 -3 7 -5 -16 -4 -52z"/>
<path d="M3306 347 c-23 -17 -12 -42 25 -53 34 -10 40 -23 16 -38 -12 -7 -21
-5 -36 8 -12 11 -21 14 -21 8 0 -21 40 -35 66 -23 34 15 30 40 -11 57 -19 8
-35 19 -35 24 0 17 29 23 45 10 9 -7 15 -8 15 -2 0 9 -22 22 -39 22 -4 0 -15
-6 -25 -13z"/>
<path d="M3410 250 c0 -5 5 -10 10 -10 6 0 10 5 10 10 0 6 -4 10 -10 10 -5 0
-10 -4 -10 -10z"/>
</g>
</svg>
