<?xml version="1.0" standalone="no"?>
<!DOCTYPE svg PUBLIC "-//W3C//DTD SVG 20010904//EN"
 "http://www.w3.org/TR/2001/REC-SVG-20010904/DTD/svg10.dtd">
<svg version="1.0" xmlns="http://www.w3.org/2000/svg"
 width="613.000000pt" height="84.000000pt" viewBox="0 0 613.000000 84.000000"
 preserveAspectRatio="xMidYMid meet">

<g transform="translate(0.000000,84.000000) scale(0.100000,-0.100000)"
fill="#000000" stroke="none">
<path d="M192 573 l-2 -83 45 0 c25 0 45 5 45 10 0 6 -18 10 -40 10 l-39 0 -4
73 -3 72 -2 -82z"/>
<path d="M600 570 c0 -47 4 -80 10 -80 6 0 10 22 10 49 0 36 4 51 16 55 26 10
43 -12 47 -62 l3 -47 2 51 c2 57 -14 80 -48 69 -17 -5 -20 -2 -20 19 0 14 -4
26 -10 26 -6 0 -10 -33 -10 -80z"/>
<path d="M3820 624 c0 -21 -3 -24 -21 -19 -47 15 -80 -63 -41 -98 9 -8 29 -15
44 -14 28 2 28 2 28 80 0 42 -2 77 -5 77 -3 0 -5 -12 -5 -26z m-12 -36 c17
-17 15 -63 -4 -79 -14 -11 -19 -10 -35 10 -33 41 3 105 39 69z"/>
<path d="M4342 575 l-2 -80 30 -2 c52 -4 80 66 41 101 -12 11 -27 15 -40 11
-16 -5 -20 -1 -24 22 -2 15 -5 -8 -5 -52z m55 17 c23 -15 21 -77 -3 -86 -36
-14 -62 52 -32 82 14 14 19 14 35 4z"/>
<path d="M4590 624 c0 -21 -3 -24 -21 -19 -47 15 -80 -63 -41 -98 9 -8 29 -15
44 -14 28 2 28 2 28 80 0 42 -2 77 -5 77 -3 0 -5 -12 -5 -26z m-12 -36 c17
-17 15 -63 -4 -79 -14 -11 -19 -10 -35 10 -33 41 3 105 39 69z"/>
<path d="M4870 640 c0 -5 5 -10 10 -10 6 0 10 5 10 10 0 6 -4 10 -10 10 -5 0
-10 -4 -10 -10z"/>
<path d="M5470 640 c0 -5 5 -10 10 -10 6 0 10 5 10 10 0 6 -4 10 -10 10 -5 0
-10 -4 -10 -10z"/>
<path d="M5830 624 c0 -22 -4 -25 -22 -21 -37 10 -58 -9 -58 -53 0 -44 17 -59
63 -57 27 2 27 2 27 80 0 42 -2 77 -5 77 -3 0 -5 -12 -5 -26z m-16 -40 c33
-33 4 -94 -35 -74 -22 12 -26 59 -7 78 16 16 23 15 42 -4z"/>
<path d="M1101 628 c-1 -10 -6 -18 -12 -18 -8 0 -8 -4 -1 -13 6 -7 12 -32 14
-56 2 -29 8 -46 18 -49 12 -4 13 -2 3 9 -7 7 -13 32 -13 56 0 28 4 43 13 43 8
0 9 3 1 8 -6 4 -14 14 -17 22 -4 12 -6 11 -6 -2z"/>
<path d="M1159 626 c-8 -39 6 -129 21 -134 12 -4 13 -2 3 9 -16 17 -17 81 -1
97 8 8 9 12 1 12 -6 0 -13 8 -15 18 -4 15 -5 15 -9 -2z"/>
<path d="M2421 628 c-1 -10 -6 -18 -12 -18 -8 0 -8 -4 -1 -13 6 -7 12 -32 14
-56 2 -29 8 -46 18 -49 12 -4 13 -2 3 9 -7 7 -13 32 -13 56 0 28 4 43 13 43 8
0 9 3 1 8 -6 4 -14 14 -17 22 -4 12 -6 11 -6 -2z"/>
<path d="M328 599 c-10 -5 -18 -15 -18 -21 0 -6 9 -3 20 7 21 19 55 14 48 -8
-3 -6 -18 -14 -34 -17 -23 -4 -30 -11 -32 -33 -4 -33 18 -45 53 -29 18 8 25 8
29 -1 2 -7 5 11 5 39 1 68 -25 91 -71 63z m52 -63 c0 -20 -25 -37 -44 -30 -16
6 -21 25 -9 37 12 13 53 7 53 -7z"/>
<path d="M508 599 c-27 -15 -25 -85 3 -100 24 -13 69 2 69 22 0 7 -8 5 -19 -5
-27 -25 -61 -6 -61 34 0 39 37 62 57 34 7 -9 15 -15 18 -12 8 8 -23 38 -38 38
-7 0 -20 -5 -29 -11z"/>
<path d="M737 592 c-33 -36 -10 -102 35 -102 42 0 63 73 30 103 -24 22 -45 21
-65 -1z m58 -8 c24 -25 6 -83 -27 -84 -13 0 -38 32 -38 50 0 19 25 50 40 50 5
0 16 -7 25 -16z"/>
<path d="M852 558 c-2 -49 1 -58 18 -63 12 -4 27 -2 35 5 10 8 14 8 18 -2 3
-7 5 16 4 52 0 52 -1 56 -4 18 -5 -53 -24 -78 -47 -58 -8 6 -17 33 -19 58 -3
46 -3 46 -5 -10z"/>
<path d="M988 599 c-27 -15 -25 -85 3 -99 23 -13 69 -5 69 11 0 6 -7 6 -20 -1
-14 -8 -26 -8 -40 0 -32 17 -23 30 20 30 33 0 40 3 40 19 0 22 -25 51 -43 51
-7 0 -20 -5 -29 -11z m50 -11 c23 -23 13 -38 -23 -38 -39 0 -48 21 -17 39 22
13 26 13 40 -1z"/>
<path d="M1227 592 c-22 -24 -21 -65 1 -85 23 -21 43 -21 68 -1 19 16 13 16
-30 -2 -7 -3 -22 3 -32 13 -17 17 -16 18 29 21 51 3 57 13 31 50 -18 27 -45
28 -67 4z m51 -4 c21 -21 13 -38 -18 -38 -18 0 -30 5 -30 13 0 13 19 37 30 37
3 0 11 -5 18 -12z"/>
<path d="M1412 598 c-7 -7 -12 -16 -12 -21 0 -5 7 -1 16 7 18 18 23 19 44 6
19 -11 4 -27 -29 -32 -35 -5 -50 -33 -29 -55 14 -14 22 -15 43 -5 15 7 25 8
25 2 0 -6 4 -10 9 -10 12 0 0 104 -13 112 -17 11 -41 9 -54 -4z m58 -63 c0
-20 -39 -40 -52 -27 -6 6 -8 18 -5 26 8 20 57 21 57 1z"/>
<path d="M1535 596 c-22 -16 -24 -68 -5 -91 9 -11 22 -14 42 -10 22 5 27 4 22
-8 -8 -22 -32 -29 -55 -17 -11 6 -19 7 -19 1 0 -5 7 -12 16 -15 51 -19 74 8
74 87 0 61 0 62 -29 64 -16 1 -37 -4 -46 -11z m49 -12 c9 -8 16 -24 16 -34 0
-18 -25 -50 -39 -50 -15 0 -31 25 -31 50 0 25 16 50 31 50 4 0 15 -7 23 -16z"/>
<path d="M1656 594 c-24 -23 -21 -81 5 -94 23 -13 69 -5 69 11 0 6 -7 6 -20
-1 -14 -8 -26 -8 -40 0 -33 18 -23 30 26 30 42 0 45 1 39 23 -13 43 -52 59
-79 31z m52 -6 c23 -23 13 -38 -23 -38 -38 0 -44 10 -19 34 19 19 26 20 42 4z"/>
<path d="M1773 550 c0 -52 1 -56 4 -18 7 87 60 91 66 5 l3 -52 2 57 c2 49 -1
58 -18 63 -12 4 -27 2 -35 -5 -10 -8 -14 -8 -18 2 -3 7 -5 -16 -4 -52z"/>
<path d="M1894 584 c-20 -29 -11 -69 19 -88 19 -12 47 0 56 25 3 9 -1 8 -13
-4 -21 -20 -28 -21 -44 -5 -17 17 -15 63 3 78 13 10 19 10 35 -5 21 -19 28 -7
8 13 -20 20 -46 14 -64 -14z"/>
<path d="M2010 590 c-24 -24 -25 -48 -4 -78 18 -26 42 -28 70 -7 23 17 12 20
-15 3 -15 -9 -23 -9 -35 1 -26 22 -19 31 24 31 32 0 40 4 40 18 0 21 -29 52
-48 52 -7 0 -21 -9 -32 -20z m54 -6 c21 -21 12 -34 -25 -34 -30 0 -38 17 -17
38 16 16 23 15 42 -4z"/>
<path d="M2196 594 c-24 -23 -21 -81 5 -94 23 -13 69 -5 69 11 0 6 -7 6 -20
-1 -14 -8 -26 -8 -40 0 -33 18 -23 30 26 30 42 0 45 1 39 23 -13 43 -52 59
-79 31z m52 -6 c23 -23 13 -38 -23 -38 -38 0 -44 10 -19 34 19 19 26 20 42 4z"/>
<path d="M2312 598 c-21 -21 -13 -37 23 -52 38 -16 44 -30 19 -40 -21 -8 -20
-8 -38 10 -9 8 -16 11 -16 6 0 -19 30 -34 55 -28 18 5 25 13 25 31 0 19 -7 26
-32 33 -17 4 -33 13 -35 19 -5 15 28 26 41 13 16 -16 30 -12 16 5 -15 18 -42
19 -58 3z"/>
<path d="M2542 558 c-2 -49 1 -58 18 -63 12 -4 27 -2 35 5 10 8 14 8 18 -2 3
-7 5 16 4 52 0 52 -1 56 -4 18 -7 -87 -60 -91 -66 -5 l-3 52 -2 -57z"/>
<path d="M2663 550 c0 -52 1 -56 4 -18 7 87 60 91 66 5 l3 -52 2 57 c2 49 -1
58 -18 63 -12 4 -27 2 -35 -5 -10 -8 -14 -8 -18 2 -3 7 -5 -16 -4 -52z"/>
<path d="M2798 599 c-27 -15 -25 -85 3 -99 23 -13 69 -5 69 11 0 6 -7 6 -20
-1 -14 -8 -26 -8 -40 0 -32 17 -23 30 20 30 33 0 40 3 40 19 0 22 -25 51 -43
51 -7 0 -20 -5 -29 -11z m50 -11 c23 -23 13 -38 -23 -38 -39 0 -48 21 -17 39
22 13 26 13 40 -1z"/>
<path d="M2983 603 c-7 -2 -13 -11 -13 -20 0 -12 2 -12 16 1 18 18 23 19 44 6
19 -11 4 -27 -29 -32 -35 -5 -50 -33 -29 -55 14 -14 22 -15 43 -5 15 7 25 8
25 2 0 -6 3 -10 8 -10 11 0 1 104 -12 112 -12 9 -35 9 -53 1z m57 -68 c0 -22
-38 -39 -56 -24 -11 9 -12 15 -3 25 15 19 59 18 59 -1z"/>
<path d="M3096 591 c-35 -39 -3 -111 43 -96 15 4 21 2 21 -9 0 -20 -37 -31
-55 -16 -10 9 -15 9 -15 1 0 -6 12 -14 26 -17 39 -10 55 14 61 88 l5 64 -35 1
c-22 1 -42 -6 -51 -16z m52 -3 c16 -16 15 -63 -2 -77 -34 -28 -67 26 -40 66
16 26 25 28 42 11z"/>
<path d="M3228 599 c-27 -15 -25 -85 3 -99 23 -13 69 -5 69 11 0 6 -7 6 -20
-1 -14 -8 -26 -8 -40 0 -32 17 -23 30 20 30 33 0 40 3 40 19 0 22 -25 51 -43
51 -7 0 -20 -5 -29 -11z m50 -11 c23 -23 13 -38 -23 -38 -39 0 -48 21 -17 39
22 13 26 13 40 -1z"/>
<path d="M3332 550 c0 -65 2 -65 13 2 6 37 30 57 49 38 5 -5 13 -31 17 -58 l6
-47 2 51 c1 62 -16 83 -54 66 -18 -8 -25 -8 -29 1 -2 7 -4 -17 -4 -53z"/>
<path d="M3468 599 c-27 -15 -25 -85 3 -100 24 -13 69 2 69 22 0 7 -8 5 -19
-5 -27 -25 -61 -6 -61 34 0 39 37 62 57 34 7 -9 15 -15 18 -12 8 8 -23 38 -38
38 -7 0 -20 -5 -29 -11z"/>
<path d="M3576 594 c-24 -23 -21 -81 5 -94 23 -13 69 -5 69 11 0 6 -7 6 -20
-1 -14 -8 -26 -8 -40 0 -33 18 -23 30 26 30 42 0 45 1 39 23 -13 43 -52 59
-79 31z m52 -6 c23 -23 13 -38 -23 -38 -38 0 -44 10 -19 34 19 19 26 20 42 4z"/>
<path d="M3888 599 c-27 -15 -25 -85 3 -99 23 -13 69 -5 69 11 0 6 -7 6 -20
-1 -14 -8 -26 -8 -40 0 -32 17 -23 30 20 30 33 0 40 3 40 19 0 22 -25 51 -43
51 -7 0 -20 -5 -29 -11z m50 -11 c23 -23 13 -38 -23 -38 -39 0 -48 21 -17 39
22 13 26 13 40 -1z"/>
<path d="M4043 594 c3 -11 11 -38 18 -61 7 -24 15 -43 19 -43 4 0 13 21 20 48
l13 47 14 -47 c8 -27 17 -48 22 -48 4 0 12 19 18 43 7 23 15 51 19 61 5 13 4
17 -4 13 -6 -4 -14 -22 -17 -40 -12 -52 -18 -54 -30 -9 -13 54 -27 55 -39 3
-11 -52 -22 -52 -31 -1 -4 22 -11 43 -17 46 -6 4 -8 -1 -5 -12z"/>
<path d="M4226 594 c-24 -23 -21 -81 5 -94 23 -13 69 -5 69 11 0 6 -7 6 -20
-1 -14 -8 -26 -8 -40 0 -33 18 -23 30 26 30 42 0 45 1 39 23 -13 43 -52 59
-79 31z m52 -6 c23 -23 13 -38 -23 -38 -38 0 -44 10 -19 34 19 19 26 20 42 4z"/>
<path d="M4658 599 c-27 -15 -25 -85 3 -99 23 -13 69 -5 69 11 0 6 -7 6 -20
-1 -14 -8 -26 -8 -40 0 -32 17 -23 30 20 30 33 0 40 3 40 19 0 22 -25 51 -43
51 -7 0 -20 -5 -29 -11z m50 -11 c23 -23 13 -38 -23 -38 -39 0 -48 21 -17 39
22 13 26 13 40 -1z"/>
<path d="M4772 598 c-21 -21 -13 -37 23 -52 38 -16 44 -30 19 -40 -21 -8 -20
-8 -38 10 -9 8 -16 11 -16 6 0 -19 30 -34 55 -28 18 5 25 13 25 31 0 19 -7 26
-32 33 -17 4 -33 13 -35 19 -5 15 28 26 41 13 16 -16 30 -12 16 5 -15 18 -42
19 -58 3z"/>
<path d="M4870 550 c0 -33 4 -60 10 -60 6 0 10 27 10 60 0 33 -4 60 -10 60 -6
0 -10 -27 -10 -60z"/>
<path d="M4935 596 c-22 -16 -24 -68 -5 -91 9 -11 22 -14 42 -10 22 5 27 4 22
-8 -8 -22 -32 -29 -55 -17 -11 6 -19 7 -19 1 0 -5 7 -12 16 -15 51 -19 74 8
74 87 0 61 0 62 -29 64 -16 1 -37 -4 -46 -11z m49 -12 c9 -8 16 -24 16 -34 0
-18 -25 -50 -39 -50 -15 0 -31 25 -31 50 0 25 16 50 31 50 4 0 15 -7 23 -16z"/>
<path d="M5040 548 c0 -32 4 -58 10 -58 6 0 10 22 10 49 0 36 4 51 16 55 26
10 43 -12 47 -62 l3 -47 2 52 c2 58 -6 68 -55 68 l-33 0 0 -57z"/>
<path d="M5237 592 c-34 -37 -6 -109 38 -98 20 5 24 2 28 -21 2 -16 5 10 5 57
1 51 -2 80 -7 71 -6 -9 -11 -10 -15 -2 -10 16 -31 13 -49 -7z m51 -4 c31 -31
0 -105 -33 -78 -25 21 -14 90 15 90 3 0 11 -5 18 -12z"/>
<path d="M5352 564 c-2 -62 15 -83 53 -66 18 8 25 8 29 -1 2 -7 5 16 5 51 1
35 -3 62 -9 62 -5 0 -10 -22 -10 -49 0 -36 -4 -51 -16 -55 -26 -10 -43 12 -47
62 l-3 47 -2 -51z"/>
<path d="M5470 550 c0 -33 4 -60 10 -60 6 0 10 27 10 60 0 33 -4 60 -10 60 -6
0 -10 -27 -10 -60z"/>
<path d="M5598 599 c-10 -5 -18 -15 -18 -21 0 -6 8 -4 18 5 23 21 36 21 52 3
9 -12 5 -17 -29 -26 -34 -9 -41 -15 -41 -35 0 -28 30 -41 59 -26 14 8 21 8 24
-2 3 -6 6 11 6 39 1 68 -25 91 -71 63z m62 -58 c0 -11 -28 -41 -38 -41 -18 1
-34 20 -29 34 7 17 67 23 67 7z"/>
<path d="M5713 550 c0 -36 2 -50 4 -32 2 17 2 47 0 65 -2 17 -4 3 -4 -33z"/>
<path d="M5887 592 c-22 -24 -21 -65 1 -85 23 -21 43 -21 68 -1 19 16 13 16
-30 -2 -7 -3 -22 3 -32 13 -17 17 -16 18 29 21 51 3 57 13 31 50 -18 27 -45
28 -67 4z m51 -4 c21 -21 13 -38 -18 -38 -18 0 -30 5 -30 13 0 13 19 37 30 37
3 0 11 -5 18 -12z"/>
<path d="M230 270 c0 -47 4 -80 10 -80 6 0 10 33 10 80 0 47 -4 80 -10 80 -6
0 -10 -33 -10 -80z"/>
<path d="M1750 346 c0 -2 7 -9 15 -16 13 -11 14 -10 9 4 -5 14 -24 23 -24 12z"/>
<path d="M1980 324 c0 -21 -3 -24 -21 -19 -47 15 -80 -63 -41 -98 9 -8 29 -15
44 -14 28 2 28 2 28 80 0 42 -2 77 -5 77 -3 0 -5 -12 -5 -26z m-12 -36 c17
-17 15 -63 -4 -79 -14 -11 -19 -10 -35 10 -33 41 3 105 39 69z"/>
<path d="M4322 275 l-2 -80 30 -2 c52 -4 80 66 41 101 -12 11 -27 15 -40 11
-16 -5 -20 -1 -24 22 -2 15 -5 -8 -5 -52z m55 17 c23 -15 21 -77 -3 -86 -36
-14 -62 52 -32 82 14 14 19 14 35 4z"/>
<path d="M4443 270 c0 -47 2 -66 4 -42 2 23 2 61 0 85 -2 23 -4 4 -4 -43z"/>
<path d="M5150 270 c0 -47 4 -80 10 -80 6 0 10 33 10 80 0 47 -4 80 -10 80 -6
0 -10 -33 -10 -80z"/>
<path d="M819 326 c-2 -11 -2 -45 1 -75 4 -46 8 -56 25 -59 18 -2 18 -2 3 8
-21 13 -25 79 -6 98 8 8 9 12 1 12 -6 0 -13 8 -15 18 -4 15 -5 15 -9 -2z"/>
<path d="M2821 328 c-1 -10 -6 -18 -12 -18 -8 0 -8 -4 -1 -13 6 -7 12 -32 14
-56 2 -29 8 -46 18 -49 12 -4 13 -2 3 9 -7 7 -13 32 -13 56 0 28 4 43 13 43 8
0 9 3 1 8 -6 4 -14 14 -17 22 -4 12 -6 11 -6 -2z"/>
<path d="M2881 328 c-1 -10 -6 -18 -12 -18 -8 0 -8 -4 -1 -13 6 -7 12 -32 14
-56 2 -29 8 -46 18 -49 12 -4 13 -2 3 9 -7 7 -13 32 -13 56 0 28 4 43 13 43 8
0 9 3 1 8 -6 4 -14 14 -17 22 -4 12 -6 11 -6 -2z"/>
<path d="M3251 328 c-1 -10 -6 -18 -12 -18 -8 0 -8 -4 -1 -13 6 -7 12 -32 14
-56 2 -29 8 -46 18 -49 12 -4 13 -2 3 9 -7 7 -13 32 -13 56 0 28 4 43 13 43 8
0 9 3 1 8 -6 4 -14 14 -17 22 -4 12 -6 11 -6 -2z"/>
<path d="M3879 326 c-8 -39 6 -129 21 -134 12 -4 13 -2 3 9 -16 17 -17 81 -1
97 8 8 9 12 1 12 -6 0 -13 8 -15 18 -4 15 -5 15 -9 -2z"/>
<path d="M5341 328 c-1 -10 -6 -18 -12 -18 -8 0 -8 -4 -1 -13 6 -7 12 -32 14
-56 2 -29 8 -46 18 -49 12 -4 13 -2 3 9 -7 7 -13 32 -13 56 0 28 4 43 13 43 8
0 9 3 1 8 -6 4 -14 14 -17 22 -4 12 -6 11 -6 -2z"/>
<path d="M5841 328 c-1 -10 -6 -18 -12 -18 -8 0 -8 -4 -1 -13 6 -7 12 -32 14
-56 2 -29 8 -46 18 -49 12 -4 13 -2 3 9 -7 7 -13 32 -13 56 0 28 4 43 13 43 8
0 9 3 1 8 -6 4 -14 14 -17 22 -4 12 -6 11 -6 -2z"/>
<path d="M298 299 c-27 -15 -25 -85 3 -99 23 -13 69 -5 69 11 0 6 -7 6 -20 -1
-14 -8 -26 -8 -40 0 -32 17 -23 30 20 30 33 0 40 3 40 19 0 22 -25 51 -43 51
-7 0 -20 -5 -29 -11z m50 -11 c23 -23 13 -38 -23 -38 -39 0 -48 21 -17 39 22
13 26 13 40 -1z"/>
<path d="M412 298 c-21 -21 -13 -37 23 -52 38 -16 44 -30 19 -40 -21 -8 -20
-8 -38 10 -9 8 -16 11 -16 6 0 -19 30 -34 55 -28 18 5 25 13 25 31 0 19 -7 26
-32 33 -17 4 -33 13 -35 19 -5 15 28 26 41 13 16 -16 30 -12 16 5 -15 18 -42
19 -58 3z"/>
<path d="M586 294 c-24 -23 -21 -81 5 -94 23 -13 69 -5 69 11 0 6 -7 6 -20 -1
-14 -8 -26 -8 -40 0 -33 18 -23 30 26 30 42 0 45 1 39 23 -13 43 -52 59 -79
31z m52 -6 c23 -23 13 -38 -23 -38 -38 0 -44 10 -19 34 19 19 26 20 42 4z"/>
<path d="M703 250 c0 -52 1 -56 4 -18 7 87 60 91 66 5 l3 -52 2 57 c2 49 -1
58 -18 63 -12 4 -27 2 -35 -5 -10 -8 -14 -8 -18 2 -3 7 -5 -16 -4 -52z"/>
<path d="M881 245 l2 -60 6 49 c4 28 14 54 25 61 15 12 15 13 -8 11 -25 -1
-26 -3 -25 -61z"/>
<path d="M966 294 c-24 -23 -21 -81 5 -94 23 -13 69 -5 69 11 0 6 -7 6 -20 -1
-14 -8 -26 -8 -40 0 -33 18 -23 30 26 30 42 0 45 1 39 23 -13 43 -52 59 -79
31z m52 -6 c23 -23 13 -38 -23 -38 -38 0 -44 10 -19 34 19 19 26 20 42 4z"/>
<path d="M1082 230 c1 -47 3 -73 5 -58 3 22 9 26 30 25 53 -4 72 92 22 108
-11 4 -26 2 -34 -5 -10 -8 -14 -8 -18 2 -3 7 -5 -25 -5 -72z m55 62 c23 -15
21 -77 -3 -86 -36 -14 -62 52 -32 82 14 14 19 14 35 4z"/>
<path d="M1202 245 c1 -56 2 -57 5 -13 3 34 10 52 24 62 20 14 20 14 -5 12
-25 -1 -26 -3 -24 -61z"/>
<path d="M1273 250 c0 -36 2 -50 4 -32 2 17 2 47 0 65 -2 17 -4 3 -4 -33z"/>
<path d="M1333 303 c-26 -10 -13 -43 22 -57 38 -16 44 -30 19 -40 -21 -8 -20
-8 -38 10 -14 14 -16 14 -16 0 0 -21 46 -32 65 -16 26 22 18 50 -15 57 -36 7
-47 20 -31 36 9 9 16 8 31 -1 27 -16 35 -15 20 3 -12 15 -34 18 -57 8z"/>
<path d="M1448 299 c-27 -15 -25 -85 3 -99 23 -13 69 -5 69 11 0 6 -7 6 -20
-1 -14 -8 -26 -8 -40 0 -32 17 -23 30 20 30 33 0 40 3 40 19 0 22 -25 51 -43
51 -7 0 -20 -5 -29 -11z m50 -11 c23 -23 13 -38 -23 -38 -39 0 -48 21 -17 39
22 13 26 13 40 -1z"/>
<path d="M1562 298 c-21 -21 -13 -37 23 -52 38 -16 44 -30 19 -40 -21 -8 -20
-8 -38 10 -9 8 -16 11 -16 6 0 -19 30 -34 55 -28 18 5 25 13 25 31 0 19 -7 26
-32 33 -17 4 -33 13 -35 19 -5 15 28 26 41 13 16 -16 30 -12 16 5 -15 18 -42
19 -58 3z"/>
<path d="M1738 299 c-10 -5 -18 -15 -18 -21 0 -6 8 -4 18 5 23 21 36 21 52 3
9 -12 5 -17 -29 -26 -34 -9 -41 -15 -41 -35 0 -28 30 -41 59 -26 14 8 21 8 24
-2 3 -6 6 11 6 39 1 68 -25 91 -71 63z m62 -58 c0 -11 -28 -41 -38 -41 -18 1
-34 20 -29 34 7 17 67 23 67 7z"/>
<path d="M2048 299 c-27 -15 -25 -85 3 -99 23 -13 69 -5 69 11 0 6 -7 6 -20
-1 -14 -8 -26 -8 -40 0 -32 17 -23 30 20 30 33 0 40 3 40 19 0 22 -25 51 -43
51 -7 0 -20 -5 -29 -11z m50 -11 c23 -23 13 -38 -23 -38 -39 0 -48 21 -17 39
22 13 26 13 40 -1z"/>
<path d="M2162 250 c11 -33 23 -60 26 -60 4 0 17 27 29 60 12 33 18 60 14 60
-5 0 -14 -20 -21 -45 -7 -25 -16 -45 -20 -45 -4 0 -13 20 -20 45 -7 25 -16 45
-21 45 -4 0 1 -27 13 -60z"/>
<path d="M2278 299 c-27 -15 -25 -85 3 -99 23 -13 69 -5 69 11 0 6 -7 6 -20
-1 -14 -8 -26 -8 -40 0 -32 17 -23 30 20 30 33 0 40 3 40 19 0 22 -25 51 -43
51 -7 0 -20 -5 -29 -11z m50 -11 c23 -23 13 -38 -23 -38 -39 0 -48 21 -17 39
22 13 26 13 40 -1z"/>
<path d="M2380 248 c0 -32 4 -58 10 -58 6 0 10 22 10 49 0 36 4 51 16 55 26
10 43 -12 47 -62 l3 -47 2 52 c2 58 -6 68 -55 68 l-33 0 0 -57z"/>
<path d="M2513 250 c0 -36 2 -50 4 -32 2 17 2 47 0 65 -2 17 -4 3 -4 -33z"/>
<path d="M2562 245 c1 -53 2 -55 5 -15 5 46 19 74 34 64 5 -3 9 -1 9 4 0 6
-11 9 -25 8 -24 -1 -25 -4 -23 -61z"/>
<path d="M2708 299 c-10 -5 -18 -15 -18 -21 0 -6 9 -3 20 7 21 19 55 14 48 -8
-3 -6 -18 -14 -34 -17 -23 -4 -30 -11 -32 -33 -4 -33 18 -45 53 -29 18 8 25 8
29 -1 2 -7 5 11 5 39 1 68 -25 91 -71 63z m52 -63 c0 -20 -25 -37 -44 -30 -16
6 -21 25 -9 37 12 13 53 7 53 -7z"/>
<path d="M2942 245 c1 -53 2 -55 5 -15 5 46 19 74 34 64 5 -3 9 -1 9 4 0 6
-11 9 -25 8 -24 -1 -25 -4 -23 -61z"/>
<path d="M3022 298 c-7 -7 -12 -16 -12 -21 0 -5 7 -1 16 7 18 18 23 19 44 6
19 -11 4 -27 -29 -32 -35 -5 -50 -33 -29 -55 14 -14 22 -15 43 -5 15 7 25 8
25 2 0 -6 4 -10 9 -10 12 0 0 104 -13 112 -17 11 -41 9 -54 -4z m58 -63 c0
-20 -39 -40 -52 -27 -6 6 -8 18 -5 26 8 20 57 21 57 1z"/>
<path d="M3148 299 c-27 -15 -25 -85 2 -99 24 -13 56 -5 64 15 7 20 -4 19 -20
-2 -18 -25 -48 -5 -52 35 -4 39 27 61 52 36 14 -13 16 -13 16 -1 0 25 -34 33
-62 16z"/>
<path d="M3303 250 c0 -36 2 -50 4 -32 2 17 2 47 0 65 -2 17 -4 3 -4 -33z"/>
<path d="M3362 250 c11 -33 23 -60 26 -60 4 0 17 27 29 60 12 33 18 60 14 60
-5 0 -14 -20 -21 -45 -7 -25 -16 -45 -20 -45 -4 0 -13 20 -20 45 -7 25 -16 45
-21 45 -4 0 1 -27 13 -60z"/>
<path d="M3478 299 c-27 -15 -25 -85 3 -99 23 -13 69 -5 69 11 0 6 -7 6 -20
-1 -14 -8 -26 -8 -40 0 -32 17 -23 30 20 30 33 0 40 3 40 19 0 22 -25 51 -43
51 -7 0 -20 -5 -29 -11z m50 -11 c23 -23 13 -38 -23 -38 -39 0 -48 21 -17 39
22 13 26 13 40 -1z"/>
<path d="M3592 298 c-21 -21 -13 -37 23 -52 38 -16 44 -30 19 -40 -21 -8 -20
-8 -38 10 -9 8 -16 11 -16 6 0 -19 30 -34 55 -28 18 5 25 13 25 31 0 19 -7 26
-32 33 -17 4 -33 13 -35 19 -5 15 28 26 41 13 16 -16 30 -12 16 5 -15 18 -42
19 -58 3z"/>
<path d="M3766 294 c-24 -23 -21 -81 5 -94 23 -13 69 -5 69 11 0 6 -7 6 -20
-1 -14 -8 -26 -8 -40 0 -33 18 -23 30 26 30 42 0 45 1 39 23 -13 43 -52 59
-79 31z m52 -6 c23 -23 13 -38 -23 -38 -38 0 -44 10 -19 34 19 19 26 20 42 4z"/>
<path d="M3995 290 c19 -62 33 -95 40 -95 9 0 46 97 42 110 -2 6 -10 -8 -17
-30 -18 -58 -26 -62 -40 -18 -7 21 -17 43 -22 48 -7 7 -8 2 -3 -15z"/>
<path d="M4113 250 c0 -36 2 -50 4 -32 2 17 2 47 0 65 -2 17 -4 3 -4 -33z"/>
<path d="M4166 297 c-23 -17 -12 -42 25 -53 34 -10 40 -23 16 -38 -12 -7 -21
-5 -36 8 -12 11 -21 14 -21 8 0 -21 40 -35 66 -23 34 15 30 40 -11 57 -19 8
-35 19 -35 24 0 17 29 23 45 10 9 -7 15 -8 15 -2 0 9 -22 22 -39 22 -4 0 -15
-6 -25 -13z"/>
<path d="M4273 250 c0 -36 2 -50 4 -32 2 17 2 47 0 65 -2 17 -4 3 -4 -33z"/>
<path d="M4500 290 c-24 -24 -25 -48 -4 -78 18 -26 42 -28 70 -7 23 17 12 20
-15 3 -15 -9 -23 -9 -35 1 -26 22 -19 31 24 31 32 0 40 4 40 18 0 21 -29 52
-48 52 -7 0 -21 -9 -32 -20z m54 -6 c21 -21 12 -34 -25 -34 -30 0 -38 17 -17
38 16 16 23 15 42 -4z"/>
<path d="M4623 303 c-26 -10 -13 -43 22 -57 38 -16 44 -30 19 -40 -21 -8 -20
-8 -38 10 -14 14 -16 14 -16 0 0 -21 46 -32 65 -16 26 22 18 50 -15 57 -36 7
-47 20 -31 36 9 9 16 8 31 -1 27 -16 35 -15 20 3 -12 15 -34 18 -57 8z"/>
<path d="M4793 303 c-26 -10 -13 -43 22 -57 38 -16 44 -30 19 -40 -21 -8 -20
-8 -38 10 -14 14 -16 14 -16 0 0 -21 46 -32 65 -16 26 22 18 50 -15 57 -36 7
-47 20 -31 36 9 9 16 8 31 -1 27 -16 35 -15 20 3 -12 15 -34 18 -57 8z"/>
<path d="M4892 264 c-2 -62 15 -83 53 -66 18 8 25 8 29 -1 2 -7 5 16 5 51 1
35 -3 62 -9 62 -5 0 -10 -22 -10 -49 0 -36 -4 -51 -16 -55 -26 -10 -43 12 -47
62 l-3 47 -2 -51z"/>
<path d="M5010 248 c0 -32 4 -58 10 -58 6 0 10 23 10 50 0 43 3 52 23 60 19 7
18 8 -10 7 l-33 -2 0 -57z"/>
<path d="M5213 250 c0 -52 1 -56 4 -18 7 87 60 91 66 5 l3 -52 2 57 c2 49 -1
58 -18 63 -12 4 -27 2 -35 -5 -10 -8 -14 -8 -18 2 -3 7 -5 -16 -4 -52z"/>
<path d="M5406 294 c-24 -23 -21 -81 5 -94 23 -13 69 -5 69 11 0 6 -7 6 -20
-1 -14 -8 -26 -8 -40 0 -33 18 -23 30 26 30 42 0 45 1 39 23 -13 43 -52 59
-79 31z m52 -6 c23 -23 13 -38 -23 -38 -38 0 -44 10 -19 34 19 19 26 20 42 4z"/>
<path d="M5510 248 c0 -32 4 -58 10 -58 6 0 10 23 10 50 0 43 3 52 23 60 19 7
18 8 -10 7 l-33 -2 0 -57z"/>
<path d="M5593 250 c0 -52 1 -56 4 -18 7 87 60 91 66 5 l3 -52 2 57 c2 49 -1
58 -18 63 -12 4 -27 2 -35 -5 -10 -8 -14 -8 -18 2 -3 7 -5 -16 -4 -52z"/>
<path d="M5728 299 c-27 -15 -25 -85 3 -99 23 -13 69 -5 69 11 0 6 -7 6 -20
-1 -14 -8 -26 -8 -40 0 -32 17 -23 30 20 30 33 0 40 3 40 19 0 22 -25 51 -43
51 -7 0 -20 -5 -29 -11z m50 -11 c23 -23 13 -38 -23 -38 -39 0 -48 21 -17 39
22 13 26 13 40 -1z"/>
</g>
</svg>
